<svg width="37" height="37" viewBox="0 0 37 37" fill="none" xmlns="http://www.w3.org/2000/svg">
<g clip-path="url(#clip0)">
<path d="M17.5058 8.51367C12.5431 8.51367 8.52539 12.5358 8.52539 17.4941C8.52539 22.4568 12.5475 26.4745 17.5058 26.4745C22.4685 26.4745 26.4862 22.4524 26.4862 17.4941C26.4862 12.5314 22.4641 8.51367 17.5058 8.51367V8.51367ZM17.5058 23.323C14.2843 23.323 11.6768 20.7141 11.6768 17.4941C11.6768 14.2741 14.2858 11.6651 17.5058 11.6651C20.7258 11.6651 23.3348 14.2741 23.3348 17.4941C23.3362 20.7141 20.7273 23.323 17.5058 23.323V23.323Z" fill="#EE1D1D"/>
<path d="M24.7157 0.11116C21.4957 -0.0390488 13.5201 -0.0317571 10.2971 0.11116C7.46505 0.243868 4.96693 0.927826 2.95297 2.94178C-0.412865 6.30762 0.0173431 10.843 0.0173431 17.4945C0.0173431 24.302 -0.361823 28.7324 2.95297 32.0472C6.33193 35.4247 10.933 34.9828 17.5057 34.9828C24.249 34.9828 26.5765 34.9872 28.9609 34.0641C32.2028 32.8055 34.6498 29.9078 34.889 24.703C35.0407 21.4816 35.0319 13.5074 34.889 10.2845C34.6003 4.14053 31.303 0.414493 24.7157 0.11116V0.11116ZM29.8126 29.8203C27.6061 32.0268 24.5451 31.8299 17.4634 31.8299C10.1717 31.8299 7.24776 31.9378 5.11422 29.7984C2.65693 27.3528 3.10172 23.4255 3.10172 17.4712C3.10172 9.41387 2.27484 3.61116 10.3613 3.19699C12.2192 3.13137 12.7661 3.10949 17.443 3.10949L17.5086 3.15324C25.28 3.15324 31.3773 2.33949 31.7434 10.4245C31.8265 12.2693 31.8455 12.8235 31.8455 17.493C31.844 24.7001 31.9811 27.6416 29.8126 29.8203V29.8203Z" fill="#EE1D1D"/>
<path d="M26.8421 10.2579C28.0011 10.2579 28.9406 9.31832 28.9406 8.15933C28.9406 7.00034 28.0011 6.06079 26.8421 6.06079C25.6831 6.06079 24.7435 7.00034 24.7435 8.15933C24.7435 9.31832 25.6831 10.2579 26.8421 10.2579Z" fill="#EE1D1D"/>
</g>
</svg>
