<svg width="37" height="37" viewBox="0 0 37 37" fill="none" xmlns="http://www.w3.org/2000/svg">
<path d="M31.4038 10.3731C32.8271 9.3625 34.0244 8.10104 35 6.64854V6.64708C33.6977 7.21729 32.3123 7.59646 30.8656 7.78021C32.3531 6.89208 33.4892 5.49646 34.0229 3.815C32.636 4.64187 31.1048 5.22521 29.4729 5.55187C28.156 4.14896 26.2792 3.28125 24.2317 3.28125C20.2592 3.28125 17.061 6.50563 17.061 10.4577C17.061 11.0265 17.1092 11.5733 17.2273 12.094C11.2627 11.8023 5.98354 8.94396 2.43688 4.58792C1.81854 5.66271 1.45396 6.89208 1.45396 8.21479C1.45396 10.6998 2.73292 12.9019 4.64188 14.1779C3.48833 14.156 2.35813 13.8206 1.4 13.2942V13.3729C1.4 16.8598 3.88646 19.756 7.14875 20.424C6.56396 20.5844 5.92813 20.6602 5.2675 20.6602C4.80813 20.6602 4.34438 20.634 3.90979 20.5377C4.83875 23.3785 7.47833 25.4683 10.6138 25.5369C8.1725 27.4458 5.07208 28.5965 1.71646 28.5965C1.12875 28.5965 0.564375 28.5702 0 28.4988C3.17917 30.5477 6.94458 31.7188 11.0075 31.7188C23.6702 31.7188 31.9229 21.1546 31.4038 10.3731V10.3731Z" fill="#EE1D1D"/>
</svg>
