<svg id="Capa_1" enable-background="new 0 0 512 512" height="512" viewBox="0 0 512 512" width="512" xmlns="http://www.w3.org/2000/svg"><g><g><g><path d="m328.262 74.741c-4.891-9.868-15.066-16.651-26.825-16.651-5.173 0-10.039 1.313-14.284 3.624-1.166.635-2.624.018-2.893-1.283-2.502-12.092-25.983-15.984-25.983-15.984-10.024 0-16.543 5.9-21.076 14.091-.607 1.097-2.021 1.403-3.009.632-6.2-4.837-15.101-10.085-23.574-10.085-19.023 0-33.259 14.704-35.012 33.268-.123 1.3-1.408 2.119-2.648 1.71-3.057-1.008-8.903-2.34-12.298-2.34-13.381 0-22.368 9.49-26.723 21.362-.325.887-1.245 1.416-2.176 1.256-3.667-.628-10.124 1.183-14.08 1.722-17.891 2.437-26.592 12.155-27.404 30.193-.973 21.601 24.066 39.148 45.453 39.148 19.69 0 223.81-4.654 232.845-4.654 18.152 0 55.74 3.361 57.834-14.227.165-1.389.255-2.802.255-4.236 0-19.585-15.877-35.463-35.463-35.463-.891 0-1.774.034-2.649.099-1.286.096-2.286-1.06-2.102-2.336.445-3.084.44-6.312-.127-9.633-2.407-14.094-14.372-24.881-28.643-25.75-4.504-.274-8.815.413-12.749 1.877z" fill="#ffbf54"/><path d="m118.603 158.56c-23.319 0-26.284-49.265 16.389-46.524 2.477.159 4.743-1.266 5.789-3.517 4.925-10.596 15.662-17.944 28.117-17.944 1.961 0 3.879.183 5.738.532 3.303.62 6.53-1.464 7.112-4.774 2.875-16.358 14.886-28.044 32.454-28.044 7.018 0 12.697 1.885 17.825 5.269 2.604 1.718 6.09 1.295 8.034-1.145 5.456-6.847 14.983-11.668 23.841-11.668 6.34 0 15.651 3.447 20.357 9.686-2.536-13.005-13.955-21.181-26.043-21.181-10.024 0-18.749 5.548-23.281 13.739-.607 1.097-2.021 1.404-3.01.632-6.2-4.837-13.997-7.722-22.47-7.722-19.023 0-34.643 14.527-36.396 33.092-.123 1.299-1.408 2.119-2.647 1.71-3.057-1.008-6.324-1.555-9.719-1.555-13.383 0-24.785 8.473-29.139 20.347-.324.884-1.241 1.412-2.17 1.253-4.131-.708-8.487-.755-12.975.038-16.018 2.831-28.459 15.868-30.701 31.812-1.761 11.936 2.648 24.505 11.483 32.721 6.744 6.35 15.828 10.242 25.822 10.242 19.69 0 259.152 12.19 268.187 12.19 18.151 0 33.113-13.64 35.207-31.227-90.557.624-292.452 2.038-307.804 2.038z" fill="#ffa442"/></g><g><path d="m385.906 334.75h-267.812l-21.094-134 .766-4 321.571-.095 1.663 4.095-18.318 112z" fill="#f7f3f1"/><path d="m123.632 308.557-17.632-107.807-7.383-5-7.617 5 30.094 184h15 254.812l11.776-72h-274.115c-2.45 0-4.539-1.775-4.935-4.193z" fill="#eae2df"/></g><g><path d="m328.944 384.75h-145.888l-15.065-72-10.991-112 3.234-4 190.3-.092 4.466 4.092-10.991 112z" fill="#fc5461"/><path d="m336.944 384.75 7.065-72h-176.018l7.065 72z" fill="#dd3652"/></g><g><path d="m278.981 334.75h-45.962l-6.355-22-3.664-112 1.915-4 58.914-.323 5.171 4.323-3.664 112z" fill="#f7f3f1"/><path d="m282.981 384.75 2.355-72h-58.672l2.355 72z" fill="#eae2df"/></g><g><path d="m413.468 196.34-311.617.315c-8.284 0-19.745-8.905-19.745-8.905 0-4.64-3.499-10.787-.189-13.539 2.599-2.161 5.939-3.461 9.583-3.461h329c8.284 0 15 6.716 15 15 0 8.284-13.748 10.59-22.032 10.59z" fill="#fc5461"/><path d="m81.917 174.211c-3.309 2.751-5.417 6.898-5.417 11.539 0 8.284 6.716 15 15 15h329c8.284 0 15-6.716 15-15h-339c-7.091 0-13.018-4.927-14.583-11.539z" fill="#dd3652"/></g><g><path d="m10.5 354.75-1 91c0 13.807 11.193 25 25 25h172.935c10.189 0 21.043-4.12 24.918-13 1.08-2.474 1.773-5.161 2.001-7.991l1.659-20.569c.84-10.416 9.538-18.44 19.987-18.44 10.449 0 21.437 3.877 22.277 14.293l1.369 22.717c1.047 12.986 11.891 22.99 24.919 22.99l171.924-.686c10.251 0 22.069-3.484 25.927-12.313 1.339-3.063 2.084-6.445 2.084-10.001v-95c0-13.807-11.193-25-25-25h-447c-3.452 0-6.74.7-9.731 1.965-.091.038-.18.08-.27.119-8.768 3.898-11.999 14.665-11.999 24.916z" fill="#f7f3f1"/><g fill="#eae2df"><path d="m22.5 447.75-.001-117.916c-8.828 3.859-14.999 12.666-14.999 22.916v95c0 13.807 11.193 25 25 25h176.935c10.189 0 19.043-6.12 22.918-15h-199.853c-5.523 0-10-4.477-10-10z"/><path d="m293.776 448.533-1.52-19.351c-.817-10.408-9.502-18.436-19.942-18.434l-16.314.002c10.449 0 19.147 8.024 19.987 18.44l1.659 20.569c1.047 12.986 11.891 22.99 24.919 22.99h176.935c10.251 0 19.058-6.171 22.916-14.999l-198.671-.001c-5.219.001-9.56-4.013-9.969-9.216z"/></g></g><g><path d="m195.5 440.75h-131c-2.761 0-5-2.239-5-5v-71c0-2.761 2.239-5 5-5l8-2h125c2.761 0 5 2.239 5 5v65l-2 8c0 2.761-2.239 5-5 5z" fill="#8e73ff"/><path d="m77.5 427.75c-2.761 0-5-2.239-5-5v-65h-10c-2.761 0-5 2.239-5 5v75c0 2.761 2.239 5 5 5h135c2.761 0 5-2.239 5-5v-10z" fill="#7d67e5"/></g><g><path d="m447.5 440.75h-131c-2.761 0-5-2.239-5-5v-71c0-2.761 2.239-5 5-5l8-2h125c2.761 0 5 2.239 5 5v65l-2 8c0 2.761-2.239 5-5 5z" fill="#fc5461"/><path d="m329.5 427.75c-2.761 0-5-2.239-5-5v-65h-10c-2.761 0-5 2.239-5 5v75c0 2.761 2.239 5 5 5h135c2.761 0 5-2.239 5-5v-10z" fill="#dd3652"/></g></g><g><path d="m504.5 385.819c4.142 0 7.5-3.357 7.5-7.5v-25.569c0-17.921-14.58-32.5-32.5-32.5h-70.445l18.505-113.141c8.958-2.969 15.44-11.419 15.44-21.359 0-8.287-4.507-15.537-11.194-19.441 1.547-4.49 2.359-9.232 2.359-14.022 0-22.66-17.636-41.279-39.902-42.855-.037-1.907-.217-3.815-.541-5.716-2.933-17.239-17.687-30.682-35.08-31.963-3.259-.242-6.491-.071-9.656.492-3.691-2.788-10.467-6.014-17.159-6.053-6.98-9.717-18.247-15.602-30.39-15.602-4.056 0-8.036.647-11.815 1.903-5.194-12.317-17.332-20.743-31.405-20.743-10.458 0-20.148 4.78-26.524 12.671-6.7-3.921-14.357-6.021-22.237-6.021-20.541 0-38.091 14.441-42.812 33.702-1.956-.304-3.942-.456-5.95-.456-14.833 0-27.972 8.289-34.42 21.175-3.117-.227-6.252-.126-9.371.297-21.629 2.946-38.039 20.897-39.02 42.685-.461 10.228 2.54 20.055 8.217 28.108-9.806 2.424-17.1 11.294-17.1 21.839 0 9.94 6.482 18.391 15.44 21.359l18.505 113.141h-70.445c-17.92 0-32.5 14.579-32.5 32.5v95c0 17.921 14.58 32.5 32.5 32.5h176.935c16.813 0 31.043-13.128 32.395-29.888l1.659-20.568c.522-6.474 6.018-11.544 12.512-11.544s11.989 5.07 12.512 11.543l1.659 20.569c1.352 16.76 15.581 29.888 32.395 29.888h176.933c17.92 0 32.5-14.579 32.5-32.5v-34.431c0-4.143-3.358-7.5-7.5-7.5s-7.5 3.357-7.5 7.5v34.431c0 9.649-7.851 17.5-17.5 17.5h-176.935c-9.053 0-16.715-7.069-17.443-16.093l-1.659-20.57c-1.146-14.207-13.21-25.337-27.463-25.337s-26.317 11.13-27.463 25.338l-1.659 20.569c-.728 9.023-8.39 16.093-17.443 16.093h-176.935c-9.649 0-17.5-7.851-17.5-17.5v-95c0-9.649 7.851-17.5 17.5-17.5h447c9.649 0 17.5 7.851 17.5 17.5v25.569c0 4.143 3.358 7.5 7.5 7.5zm-153.691-65.569 10.991-112h50.373l-18.318 112zm-58.214 0 3.664-112h50.469l-10.991 112zm-59.256-32.817c-.136-4.14-3.574-7.405-7.741-7.251-4.14.136-7.386 3.602-7.251 7.741l1.057 32.327h-43.142l-10.991-112h50.469l1.46 44.632c.133 4.057 3.463 7.255 7.492 7.255.083 0 .166-.001.25-.004 4.14-.136 7.386-3.602 7.251-7.741l-1.444-44.142h50.501l-3.664 112h-43.174zm-141.839-109.183h206.436c4.142 0 7.5-3.357 7.5-7.5s-3.358-7.5-7.5-7.5h-191.244c-9.033-5.822-14.312-15.964-13.825-26.773.645-14.31 11.848-26.561 26.06-28.496 3.506-.479 7.042-.338 10.512.413 3.809.827 7.615-1.404 8.758-5.131 3.049-9.939 12.09-16.617 22.497-16.617 3.212 0 6.327.637 9.257 1.893 2.291.982 4.918.763 7.013-.587 2.095-1.348 3.384-3.649 3.439-6.14.348-15.667 13.381-28.412 29.052-28.412 7.16 0 14.042 2.63 19.377 7.406 1.793 1.605 4.25 2.252 6.599 1.74 2.352-.513 4.314-2.122 5.277-4.327 3.042-6.967 9.914-11.469 17.508-11.469 9.87 0 18.04 7.395 19.003 17.2.258 2.631 1.883 4.933 4.277 6.056 2.394 1.124 5.202.904 7.392-.578 3.708-2.511 8.047-3.838 12.549-3.838 5.224 0 10.177 1.822 14.107 5.003-4.894 3.023-8.923 7.458-11.396 12.944-1.703 3.776-.022 8.218 3.754 9.92 3.778 1.704 8.218.022 9.92-3.754 2.53-5.609 8.352-9.017 14.488-8.481 3.858.337 7.354 2.157 9.844 5.124s3.675 6.726 3.337 10.585c-.351 3.203 2.626 8.054 7.48 8.153 3.846 0 7.121-2.942 7.463-6.847.339-3.881-.081-7.712-1.203-11.324 9.857 1.482 18.007 9.357 19.703 19.32.525 3.09.431 6.214-.283 9.287-.561 2.418.111 4.956 1.793 6.78 1.683 1.823 4.158 2.702 6.614 2.334 1.38-.205 2.774-.309 4.144-.309 15.418 0 27.962 12.544 27.962 27.963 0 3.784-.775 7.517-2.243 10.963h-83.985c-4.142 0-7.5 3.357-7.5 7.5s3.358 7.5 7.5 7.5h87.564c4.136 0 7.5 3.364 7.5 7.5s-3.364 7.5-7.5 7.5h-329c-4.136 0-7.5-3.364-7.5-7.5s3.364-7.501 7.5-7.501zm8.327 30h50.373l10.991 112h-43.046z"/><path d="m122.255 435.25c-4.142 0-7.5 3.357-7.5 7.5s3.358 7.5 7.5 7.5h80.245c4.142 0 7.5-3.357 7.5-7.5v-85c0-4.143-3.358-7.5-7.5-7.5h-145c-4.142 0-7.5 3.357-7.5 7.5v85c0 4.143 3.358 7.5 7.5 7.5h29.755c4.142 0 7.5-3.357 7.5-7.5s-3.358-7.5-7.5-7.5h-22.255v-70h130v70z"/><path d="m309.5 350.25c-4.142 0-7.5 3.357-7.5 7.5v85c0 4.143 3.358 7.5 7.5 7.5h145c4.142 0 7.5-3.357 7.5-7.5v-85c0-4.143-3.358-7.5-7.5-7.5zm137.5 85h-130v-70h130z"/><path d="m314.826 130.313c2.565-3.797 6.826-6.063 11.399-6.063 5.285 0 10.015 2.952 12.346 7.704 1.661 3.385 5.578 5.014 9.146 3.799.956-.324 1.931-.489 2.897-.489 4.551 0 8.399 3.396 8.953 7.9.297 2.858 3.743 6.987 8.358 6.53 4.111-.505 7.035-4.248 6.529-8.358-1.476-12.014-11.725-21.072-23.841-21.072-.568 0-1.136.021-1.702.062-5.374-6.943-13.642-11.075-22.686-11.075-9.563 0-18.471 4.735-23.829 12.667-2.319 3.433-1.416 8.095 2.017 10.413 3.432 2.317 8.094 1.415 10.413-2.018z"/><path d="m239.902 109.75c-.265 0-.527.021-.79.029-5.423-10.065-15.96-16.529-27.71-16.529-13.644 0-25.671 8.703-29.93 21.657-1.293 3.935.848 8.173 4.783 9.467 3.935 1.292 8.174-.848 9.467-4.783 2.229-6.783 8.531-11.341 15.68-11.341 5.423 0 10.354 2.627 13.394 6.855-2.998 2.429-5.434 5.585-7.005 9.3-1.613 3.815.171 8.216 3.986 9.829 3.816 1.612 8.216-.17 9.83-3.985 1.413-3.341 4.669-5.499 8.296-5.499 4.962 0 9 4.037 9 9 0 4.143 3.358 7.5 7.5 7.5s7.5-3.357 7.5-7.5c-.001-13.233-10.767-24-24.001-24z"/><path d="m131.862 124.657c-6.677 5.805-9.217 14.99-6.472 23.401 1.033 3.165 3.97 5.175 7.128 5.175.771 0 1.556-.12 2.328-.372 3.938-1.285 6.088-5.519 4.803-9.457-.871-2.669-.065-5.585 2.054-7.427 2.898-2.52 7.308-2.211 9.828.688 2.718 3.128 7.455 3.458 10.581.74 3.126-2.717 3.458-7.454.74-10.58-7.945-9.141-21.846-10.113-30.99-2.168z"/></g></g></svg>