<svg id="Capa_1" enable-background="new 0 0 512 512" height="512" viewBox="0 0 512 512" width="512" xmlns="http://www.w3.org/2000/svg"><g><path d="m442.463 181.449c-17.069 0-30.905 13.837-30.905 30.905v148.979h-311.115v-148.979c0-17.068-13.837-30.905-30.905-30.905-17.069 0-30.905 13.837-30.905 30.905v227.066c0 11.624 6.42 21.744 15.905 27.021v45.559h30v-41.674h342.926v41.674h30v-45.559c9.485-5.277 15.905-15.397 15.905-27.021v-227.066c-.001-17.068-13.838-30.905-30.906-30.905z"/><path d="m130.443 284.522h251.115v46.811h-251.115z"/><path d="m130.443 212.354v42.168h251.115v-42.168c0-33.583 27.322-60.905 60.905-60.905v-120.544c0-17.068-13.837-30.905-30.906-30.905h-311.114c-17.069 0-30.906 13.837-30.906 30.905v120.543c33.584.001 60.906 27.323 60.906 60.906z"/></g></svg>