<svg width="39" height="40" viewBox="0 0 39 40" fill="none" xmlns="http://www.w3.org/2000/svg">
<g clip-path="url(#clip0)">
<path d="M33.2176 14.3328C31.96 14.3328 30.9407 15.3783 30.9407 16.668V27.9252H8.01992V16.668C8.01992 15.3783 7.0005 14.3328 5.74305 14.3328C4.48553 14.3328 3.46619 15.3783 3.46619 16.668V33.8256C3.46619 34.7039 3.93917 35.4686 4.63796 35.8673V39.3099H6.84815V36.1609H32.1125V39.3099H34.3227V35.8673C35.0215 35.4686 35.4945 34.7039 35.4945 33.8256V16.668C35.4944 15.3783 34.475 14.3328 33.2176 14.3328Z" fill="#C4C4C4"/>
<path d="M10.2301 22.1211H28.7305V25.6582H10.2301V22.1211Z" fill="#C4C4C4"/>
<path d="M10.23 16.668V19.8543H28.7305V16.668C28.7305 14.1304 30.7433 12.0659 33.2175 12.0659V2.95732C33.2175 1.66762 32.1981 0.62207 30.9406 0.62207H8.01986C6.76233 0.62207 5.74292 1.66762 5.74292 2.95732V12.0658C8.21715 12.0659 10.23 14.1304 10.23 16.668Z" fill="#C4C4C4"/>
</g>
<defs>
<clipPath id="clip0">
<rect width="37.7206" height="38.6878" fill="white" transform="translate(0.619995 0.62207)"/>
</clipPath>
</defs>
</svg>
