<svg width="20" height="20" viewBox="0 0 25 25" fill="none" xmlns="http://www.w3.org/2000/svg">
<path d="M22.0627 13.7187C22.1109 13.3281 22.1431 12.9219 22.1431 12.5C22.1431 12.0781 22.1109 11.6719 22.0467 11.2812L24.7628 9.21875C25.0039 9.03125 25.0682 8.6875 24.9235 8.42188L22.352 4.09375C22.1913 3.8125 21.8538 3.71875 21.5645 3.8125L18.3662 5.0625C17.6912 4.5625 16.984 4.15625 16.1965 3.84375L15.7144 0.53125C15.6661 0.21875 15.3929 0 15.0715 0H9.92851C9.60707 0 9.34993 0.21875 9.30171 0.53125L8.81956 3.84375C8.03204 4.15625 7.30881 4.57812 6.64986 5.0625L3.45157 3.8125C3.16228 3.70313 2.82477 3.8125 2.66406 4.09375L0.0925661 8.42188C-0.0681519 8.70312 -0.00386447 9.03125 0.253284 9.21875L2.96942 11.2812C2.90513 11.6719 2.85692 12.0938 2.85692 12.5C2.85692 12.9062 2.88906 13.3281 2.95335 13.7187L0.237212 15.7812C-0.00386486 15.9688 -0.0681519 16.3125 0.0764943 16.5781L2.64798 20.9062C2.8087 21.1875 3.14621 21.2812 3.4355 21.1875L6.63379 19.9375C7.30881 20.4375 8.01597 20.8438 8.80348 21.1562L9.28564 24.4687C9.34993 24.7812 9.60707 25 9.92851 25H15.0715C15.3929 25 15.6661 24.7812 15.6983 24.4687L16.1804 21.1562C16.968 20.8438 17.6912 20.4219 18.3501 19.9375L21.5484 21.1875C21.8377 21.2969 22.1752 21.1875 22.3359 20.9062L24.9074 16.5781C25.0682 16.2969 25.0039 15.9688 24.7467 15.7812L22.0627 13.7187ZM12.5 17.1875C9.84815 17.1875 7.67846 15.0781 7.67846 12.5C7.67846 9.92188 9.84815 7.8125 12.5 7.8125C15.1518 7.8125 17.3215 9.92188 17.3215 12.5C17.3215 15.0781 15.1518 17.1875 12.5 17.1875Z" fill="#E1E1E1"/>
</svg>
