<svg fill="none" xmlns="http://www.w3.org/2000/svg">
<path opacity="0.1" d="M159.797 20.2788V102.121C159.798 104.785 159.273 107.422 158.253 109.882C157.232 112.343 155.736 114.579 153.85 116.462C151.964 118.345 149.725 119.839 147.26 120.858C144.795 121.877 142.154 122.401 139.486 122.4H57.5136C52.924 122.406 48.4686 120.855 44.8782 118.001C43.3922 116.819 42.0779 115.437 40.9729 113.894C38.5199 110.457 37.2019 106.341 37.2025 102.121V20.2788C37.2025 19.736 37.2237 19.1991 37.2661 18.6679C37.347 17.6305 37.5088 16.601 37.75 15.5887C38.808 11.1496 41.3342 7.19636 44.9204 4.36772C48.5066 1.53909 52.9433 0.000295372 57.5136 0H139.486C144.057 0.000295372 148.493 1.53909 152.08 4.36772C155.666 7.19636 158.192 11.1496 159.25 15.5887C159.491 16.601 159.653 17.6305 159.734 18.6679C159.776 19.1991 159.797 19.736 159.797 20.2788Z" fill="#9795AC"/>
<path opacity="0.1" d="M100.042 64.4717H159.797V67.5509H100.042V88.9132H159.797V91.9925H100.042V122.4H96.9579V91.9925H37.2025V88.9132H96.9579V67.5509H37.2025V64.4717H96.9579V43.1094H37.2025V40.0302H96.9579V18.6679H37.2661C37.347 17.6305 37.5088 16.601 37.75 15.5887H96.9579V0H100.042V15.5887H159.25C159.491 16.601 159.653 17.6305 159.734 18.6679H100.042V40.0302H159.797V43.1094H100.042V64.4717Z" fill="black"/>
<path opacity="0.1" d="M98.5 153C152.9 153 197 146.092 197 137.571C197 129.05 152.9 122.142 98.5 122.142C44.1 122.142 0 129.05 0 137.571C0 146.092 44.1 153 98.5 153Z" fill="#EE1D1D"/>
<path d="M174.004 132.025C176.697 132.025 178.881 131.605 178.881 131.087C178.881 130.57 176.697 130.15 174.004 130.15C171.31 130.15 169.127 130.57 169.127 131.087C169.127 131.605 171.31 132.025 174.004 132.025Z" fill="#EE1D1D"/>
<path d="M173.923 131.434C174.237 131.434 174.492 131.101 174.492 130.691C174.492 130.281 174.237 129.948 173.923 129.948C173.609 129.948 173.354 130.281 173.354 130.691C173.354 131.101 173.609 131.434 173.923 131.434Z" fill="#3F3D56"/>
<path d="M173.923 130.525C174.237 130.525 174.492 130.193 174.492 129.782C174.492 129.372 174.237 129.04 173.923 129.04C173.609 129.04 173.354 129.372 173.354 129.782C173.354 130.193 173.609 130.525 173.923 130.525Z" fill="#3F3D56"/>
<path d="M173.923 129.619C174.237 129.619 174.492 129.286 174.492 128.876C174.492 128.466 174.237 128.133 173.923 128.133C173.609 128.133 173.354 128.466 173.354 128.876C173.354 129.286 173.609 129.619 173.923 129.619Z" fill="#3F3D56"/>
<path d="M173.923 128.713C174.237 128.713 174.492 128.38 174.492 127.97C174.492 127.559 174.237 127.227 173.923 127.227C173.609 127.227 173.354 127.559 173.354 127.97C173.354 128.38 173.609 128.713 173.923 128.713Z" fill="#3F3D56"/>
<path d="M173.923 127.804C174.237 127.804 174.492 127.471 174.492 127.061C174.492 126.651 174.237 126.318 173.923 126.318C173.609 126.318 173.354 126.651 173.354 127.061C173.354 127.471 173.609 127.804 173.923 127.804Z" fill="#3F3D56"/>
<path d="M173.923 126.898C174.237 126.898 174.492 126.565 174.492 126.155C174.492 125.744 174.237 125.412 173.923 125.412C173.609 125.412 173.354 125.744 173.354 126.155C173.354 126.565 173.609 126.898 173.923 126.898Z" fill="#3F3D56"/>
<path d="M173.923 125.991C174.237 125.991 174.492 125.659 174.492 125.248C174.492 124.838 174.237 124.505 173.923 124.505C173.609 124.505 173.354 124.838 173.354 125.248C173.354 125.659 173.609 125.991 173.923 125.991Z" fill="#3F3D56"/>
<path d="M176.047 119.042C176.125 118.943 176.196 118.839 176.259 118.73L174.767 118.486L176.381 118.497C176.535 118.161 176.619 117.797 176.628 117.427C176.637 117.057 176.571 116.689 176.433 116.346L174.268 117.468L176.265 116.001C176.079 115.677 175.827 115.394 175.526 115.171C175.226 114.948 174.882 114.789 174.517 114.705C174.152 114.621 173.773 114.612 173.405 114.681C173.037 114.749 172.687 114.893 172.376 115.103C172.066 115.313 171.803 115.584 171.603 115.901C171.403 116.217 171.27 116.571 171.213 116.941C171.156 117.31 171.177 117.688 171.273 118.049C171.369 118.411 171.539 118.749 171.772 119.042C171.651 119.195 171.547 119.361 171.461 119.536L173.389 120.541L171.324 119.848C171.179 120.276 171.143 120.733 171.219 121.179C171.295 121.624 171.482 122.043 171.762 122.398C171.446 122.799 171.25 123.28 171.195 123.787C171.141 124.293 171.23 124.805 171.453 125.263C171.676 125.722 172.024 126.108 172.457 126.379C172.889 126.649 173.389 126.793 173.9 126.793C174.41 126.793 174.91 126.649 175.343 126.379C175.776 126.108 176.123 125.722 176.346 125.263C176.569 124.805 176.659 124.293 176.604 123.787C176.549 123.28 176.353 122.799 176.037 122.398C176.414 121.92 176.619 121.329 176.619 120.72C176.619 120.111 176.414 119.52 176.037 119.042H176.047Z" fill="#EE1D1D"/>
<path opacity="0.1" d="M171.19 120.72C171.188 121.328 171.391 121.919 171.768 122.398C171.452 122.799 171.256 123.28 171.201 123.786C171.147 124.293 171.236 124.805 171.459 125.263C171.682 125.722 172.03 126.108 172.462 126.379C172.895 126.649 173.395 126.792 173.906 126.792C174.416 126.792 174.916 126.649 175.349 126.379C175.781 126.108 176.129 125.722 176.352 125.263C176.575 124.805 176.664 124.293 176.61 123.786C176.555 123.28 176.359 122.799 176.043 122.398C176.411 121.936 171.19 120.416 171.19 120.72Z" fill="black"/>
<path d="M156.039 107.196H39.8048V133.851H156.039V107.196Z" fill="#46455B"/>
<path d="M40.5758 79.5791L29.5885 87.8546L38.0699 95.5527L42.8889 87.8546L49.4427 79.5791H40.5758Z" fill="#46455B"/>
<path d="M154.111 89.5867L152.569 87.8546L142.738 82.2735L151.798 82.0811L165.869 87.8546L160.087 91.5112L154.111 89.5867Z" fill="#46455B"/>
<path d="M39.8047 89.9716L49.4427 79.5791V103.443L42.8889 108.832L38.8409 103.251L39.8047 89.9716Z" fill="#46455B"/>
<path d="M154.304 94.2058L152.569 87.8548L149.292 83.6209L142.738 82.2737V108.832H156.039L154.304 94.2058Z" fill="#46455B"/>
<path d="M51.5727 72.4585H141.572C142.367 72.4585 143.129 72.7738 143.692 73.335C144.254 73.8963 144.569 74.6574 144.569 75.4511V102.866H48.5753V75.4511C48.5753 74.6574 48.8911 73.8963 49.4532 73.335C50.0154 72.7738 50.7778 72.4585 51.5727 72.4585Z" fill="#46455B"/>
<path d="M42.8889 108.832L49.4427 100.749H142.738L152.569 108.832H42.8889Z" fill="#46455B"/>
<path opacity="0.05" d="M42.8889 108.832L49.4427 100.749H142.738L152.569 108.832H42.8889Z" fill="black"/>
<path d="M42.8889 87.8547H29.5885V133.851H42.8889V87.8547Z" fill="#46455B"/>
<path opacity="0.05" d="M42.8889 87.8547H29.5885V133.851H42.8889V87.8547Z" fill="white"/>
<path d="M165.869 87.8547H152.569V133.851H165.869V87.8547Z" fill="#46455B"/>
<path opacity="0.05" d="M165.869 87.8547H152.569V133.851H165.869V87.8547Z" fill="white"/>
<path d="M84.8141 79.2906C93.3307 79.2906 100.235 70.2003 100.235 58.9869C100.235 47.7734 93.3307 38.6831 84.8141 38.6831C76.2974 38.6831 69.3933 47.7734 69.3933 58.9869C69.3933 70.2003 76.2974 79.2906 84.8141 79.2906Z" fill="#2F2E41"/>
<path d="M91.5607 50.2302H74.4051V74.0944H91.5607V50.2302Z" fill="#2F2E41"/>
<path opacity="0.1" d="M91.5607 50.2302H74.4051V74.0944H91.5607V50.2302Z" fill="black"/>
<path d="M75.6503 64.2254C75.1136 64.8781 74.4206 65.3849 73.6355 65.6992C72.8504 66.0134 71.9987 66.1247 71.159 66.0229C71.0819 67.22 71.8954 68.2708 72.6645 69.1926L78.6843 76.4038C78.708 76.461 78.747 76.5105 78.797 76.547C78.847 76.5835 78.9061 76.6055 78.9678 76.6107C79.0296 76.6158 79.0915 76.6039 79.1469 76.5763C79.2023 76.5486 79.249 76.5063 79.2819 76.4539L88.4765 67.7454C87.559 68.1303 86.4737 67.5202 85.9706 66.6619C85.4675 65.8035 85.4174 64.772 85.3712 63.7751C85.3043 62.2868 85.2401 60.7998 85.1784 59.314C85.163 58.983 85.1302 58.6173 84.8854 58.3941C84.6949 58.251 84.4676 58.1648 84.23 58.1458C82.7785 57.8976 78.2545 56.6062 77.416 58.1304C77.0305 58.8252 77.2039 60.18 77.0305 60.9653C76.7702 62.1296 76.4021 63.2901 75.6503 64.2254Z" fill="#FBBEBE"/>
<path opacity="0.1" d="M75.6503 64.2254C75.1136 64.8781 74.4206 65.3849 73.6355 65.6992C72.8504 66.0134 71.9987 66.1247 71.159 66.0229C71.0819 67.22 71.8954 68.2708 72.6645 69.1926L78.6843 76.4038C78.708 76.461 78.747 76.5105 78.797 76.547C78.847 76.5835 78.9061 76.6055 78.9678 76.6107C79.0296 76.6158 79.0915 76.6039 79.1469 76.5763C79.2023 76.5486 79.249 76.5063 79.2819 76.4539L88.4765 67.7454C87.559 68.1303 86.4737 67.5202 85.9706 66.6619C85.4675 65.8035 85.4174 64.772 85.3712 63.7751C85.3043 62.2868 85.2401 60.7998 85.1784 59.314C85.163 58.983 85.1302 58.6173 84.8854 58.3941C84.6949 58.251 84.4676 58.1648 84.23 58.1458C82.7785 57.8976 78.2545 56.6062 77.416 58.1304C77.0305 58.8252 77.2039 60.18 77.0305 60.9653C76.7702 62.1296 76.4021 63.2901 75.6503 64.2254Z" fill="black"/>
<path d="M82.3082 62.7396C87.3118 62.7396 91.3679 58.6899 91.3679 53.6943C91.3679 48.6988 87.3118 44.649 82.3082 44.649C77.3047 44.649 73.2485 48.6988 73.2485 53.6943C73.2485 58.6899 77.3047 62.7396 82.3082 62.7396Z" fill="#FBBEBE"/>
<path d="M79.0313 71.908L77.5779 67.3334C76.9996 65.5013 76.1785 63.4247 74.3473 62.8339C73.1907 62.4644 71.9436 62.8031 70.7388 62.7011C68.3949 62.499 66.1126 60.638 63.9209 61.4906C61.2223 62.5375 61.2454 66.6752 58.8494 68.2995C58.8494 72.1659 60.1004 75.7571 60.777 79.5619C61.4536 83.3667 61.6483 87.4736 59.8826 90.9166C59.1347 92.3754 58.0649 93.6456 57.2669 95.0774C55.9586 97.4385 55.4234 100.149 55.7364 102.829C65.968 102.958 76.201 102.989 86.4352 102.922C86.3408 101.598 85.749 100.293 85.6526 98.9688C85.5948 98.5691 85.6264 98.1616 85.7451 97.7756C85.9707 97.1982 86.5451 96.8538 87.0366 96.4785C87.6952 95.9718 88.2528 95.3464 88.6809 94.6348C89.3632 93.5012 89.6871 92.1945 90.0032 90.9089L93.8352 75.3202C94.2921 73.463 94.7354 71.4365 93.9413 69.6967C93.07 67.7857 90.9805 66.7926 89.0509 65.9555C87.8944 65.4493 86.5644 64.9374 85.3885 65.4031C84.4247 65.788 83.8195 66.7099 83.2103 67.5451C82.0319 69.1902 80.6248 70.6592 79.0313 71.908Z" fill="#F86D70"/>
<path opacity="0.1" d="M58.7472 69.6718C58.4465 70.7957 58.6142 71.9966 58.3925 73.136C58.0205 75.0432 56.6268 76.5597 55.6939 78.261C54.248 80.9028 53.8819 84.0007 54.6723 86.906C54.9074 87.7547 55.3257 88.6631 56.1507 88.9748C56.7406 89.2 57.3998 89.0595 58.0301 89.1153C58.8628 89.1885 59.7283 89.6003 60.4974 89.2731C61.4477 88.869 61.6366 87.6354 61.7407 86.6096C61.9806 84.2308 62.4935 81.8874 63.2693 79.6255C64.0404 77.3622 65.0986 75.1163 65.0832 72.7241C65.0716 71.0382 62.9089 72.5894 61.4979 71.5906C59.9057 70.4705 59.2696 67.73 58.7472 69.6718Z" fill="black"/>
<path d="M58.3617 69.4793C58.061 70.6032 58.2287 71.8041 58.007 72.9434C57.635 74.8506 56.2413 76.3672 55.3084 78.0684C53.8625 80.7103 53.4964 83.8082 54.2868 86.7134C54.5219 87.5621 54.9402 88.4705 55.7652 88.7823C56.3551 89.0075 57.0143 88.867 57.6446 88.9228C58.4773 88.9959 59.3428 89.4078 60.1119 89.0806C61.0622 88.6764 61.2511 87.4428 61.3552 86.417C61.5951 84.0382 62.108 81.6948 62.8838 79.4329C63.6549 77.1697 64.7131 74.9238 64.6977 72.5316C64.6861 70.8457 63.944 68.9828 62.533 67.9839C60.9408 66.8639 58.8841 67.5374 58.3617 69.4793Z" fill="#F86D70"/>
<path d="M71.5522 58.8964C72.7088 58.2497 73.848 57.5492 75.0392 56.9487C76.9013 56.0192 78.9946 55.2936 80.4596 53.8695C80.5351 53.7977 80.6277 53.7463 80.7286 53.7203C80.8296 53.6943 80.9356 53.6945 81.0364 53.7209C81.1373 53.7473 81.2297 53.7991 81.3048 53.8713C81.38 53.9434 81.4354 54.0336 81.4658 54.1332C82.0961 56.1828 82.8419 58.1952 83.6999 60.1608C84.4401 61.8544 85.2651 63.5172 85.8202 65.28C86.2057 66.5059 86.4467 67.7819 86.9267 68.9616C87.5531 70.5013 88.5536 71.8715 89.5463 73.2149C89.9106 73.7114 90.2865 74.2156 90.7973 74.562C91.5143 75.0489 92.5842 75.3607 92.6593 76.2229C91.7283 76.8945 90.4619 76.6732 89.315 76.6636C88.168 76.654 87.0018 76.8907 85.8684 77.1698C84.5443 77.4714 83.2531 77.902 82.0132 78.4553C80.8066 79.0231 79.7001 79.7698 78.5821 80.5127L68.3331 87.3774C67.5794 86.5172 67.6083 85.2605 67.4464 84.1212C67.3083 83.3013 67.1098 82.4928 66.8527 81.702L65.8311 78.2667C65.3453 76.6347 64.8673 75.0047 64.3199 73.39C63.8688 72.0428 63.3676 70.6822 62.4848 69.5698C61.4208 68.2226 59.8903 67.3489 58.5621 66.2654C58.0918 65.8805 57.6273 65.4417 57.4518 64.8605C57.3936 64.6707 57.3773 64.4706 57.4039 64.2739C57.4305 64.0773 57.4995 63.8887 57.6061 63.7212C57.8875 63.3151 58.2904 63.3747 58.7376 63.3035C59.8286 63.1303 60.9106 62.9116 61.9836 62.6473C64.1122 62.1199 66.193 61.4156 68.204 60.5418C69.3464 60.0492 70.4625 59.5007 71.5522 58.8964Z" fill="#BBBDC8"/>
<path opacity="0.1" d="M71.9725 60.3206C72.9883 59.7586 73.9752 59.1428 75.0142 58.6231C76.6411 57.811 78.4646 57.1797 79.7426 55.9423C79.8082 55.879 79.889 55.8337 79.9773 55.8106C80.0655 55.7875 80.1582 55.7874 80.2465 55.8104C80.3347 55.8334 80.4156 55.8787 80.4813 55.9419C80.547 56.0051 80.5953 56.0841 80.6216 56.1713C81.1711 57.9593 81.8217 59.7147 82.5704 61.4291C83.2161 62.9071 83.9351 64.3582 84.4151 65.8959C84.7466 66.964 84.9606 68.0706 85.3789 69.108C85.9244 70.4551 86.7995 71.6464 87.6631 72.8185C87.9578 73.2684 88.3267 73.6653 88.7541 73.9924C89.3825 74.4177 90.3154 74.6891 90.379 75.4435C89.5675 76.0209 88.463 75.8284 87.4626 75.8284C86.4462 75.8488 85.4365 75.9976 84.4575 76.2711C83.3033 76.5336 82.1778 76.9094 81.0977 77.3931C80.0555 77.9169 79.0548 78.519 78.1041 79.1944L69.162 85.1739C68.5047 84.4234 68.5317 83.3206 68.391 82.3314C68.2712 81.614 68.0985 80.9064 67.8744 80.2144L66.9819 77.2179C66.5579 75.7938 66.1338 74.3715 65.6634 72.9628C65.2779 71.7869 64.8346 70.6014 64.0635 69.6295C63.1344 68.4575 61.8006 67.6934 60.6401 66.7427C60.2315 66.4098 59.8248 66.0249 59.6763 65.5187C59.6255 65.3533 59.6112 65.1788 59.6345 65.0074C59.6578 64.8359 59.7181 64.6716 59.8113 64.5257C60.0561 64.1696 60.4088 64.2216 60.7982 64.16C61.7504 64.0099 62.6943 63.8174 63.6298 63.5826C65.487 63.1239 67.3021 62.5097 69.056 61.7466C70.0519 61.3181 71.0241 60.8428 71.9725 60.3206Z" fill="black"/>
<path d="M68.231 68.1551C68.6568 68.1551 69.002 67.8104 69.002 67.3853C69.002 66.9601 68.6568 66.6155 68.231 66.6155C67.8052 66.6155 67.46 66.9601 67.46 67.3853C67.46 67.8104 67.8052 68.1551 68.231 68.1551Z" fill="#BBBDC8"/>
<path d="M76.4522 64.3543C76.878 64.3543 77.2232 64.0097 77.2232 63.5845C77.2232 63.1594 76.878 62.8147 76.4522 62.8147C76.0264 62.8147 75.6812 63.1594 75.6812 63.5845C75.6812 64.0097 76.0264 64.3543 76.4522 64.3543Z" fill="#BBBDC8"/>
<path d="M72.1189 76.5384C72.5448 76.5384 72.89 76.1937 72.89 75.7686C72.89 75.3434 72.5448 74.9988 72.1189 74.9988C71.6931 74.9988 71.3479 75.3434 71.3479 75.7686C71.3479 76.1937 71.6931 76.5384 72.1189 76.5384Z" fill="#BBBDC8"/>
<path d="M80.3401 72.7376C80.766 72.7376 81.1112 72.393 81.1112 71.9678C81.1112 71.5427 80.766 71.198 80.3401 71.198C79.9143 71.198 79.5691 71.5427 79.5691 71.9678C79.5691 72.393 79.9143 72.7376 80.3401 72.7376Z" fill="#BBBDC8"/>
<path d="M60.1968 80.6069C60.9679 80.3856 61.7794 80.1431 62.3461 79.5754C62.7856 79.1327 63.0304 78.5381 63.3388 77.9953C63.9537 76.9118 64.9271 75.9515 66.1512 75.7129C67.3752 75.4742 68.8132 76.1805 69.0753 77.3987C69.245 78.1917 68.9134 78.998 68.5838 79.7409C68.0903 80.8533 67.5333 82.0195 66.5155 82.6912C65.6249 83.2782 64.4896 83.4071 63.6144 84.0172C62.8434 84.5561 62.3577 85.4086 61.6869 86.0726C60.8099 86.9348 59.65 87.451 58.4215 87.5256C58.235 87.5476 58.0459 87.5218 57.8721 87.4506C57.7019 87.3499 57.559 87.2091 57.4558 87.0406C56.8891 86.2708 56.3146 85.4779 56.0139 84.5676C54.9673 81.3941 57.93 81.2555 60.1968 80.6069Z" fill="#FBBEBE"/>
<path d="M80.7334 81.0302C80.4732 79.479 80.4385 77.7874 79.4785 76.5403C78.6747 75.4991 77.3389 74.9718 76.0243 74.8833C75.6388 74.8563 75.1858 74.8948 74.9622 75.2104C74.8349 75.4331 74.7841 75.6914 74.8176 75.9456C74.8989 77.9167 75.6355 79.8045 76.911 81.3112C77.391 81.8731 77.948 82.3851 78.2834 83.0433C78.5764 83.611 78.6844 84.2596 78.9562 84.8369C79.3108 85.5894 79.92 86.1841 80.3864 86.8769C81.0478 87.8694 81.3907 89.0395 81.3695 90.2314C81.8784 89.4019 81.8167 88.3646 81.8649 87.3927C81.9285 86.0244 82.8885 85.2757 82.2658 84.1595C81.6432 83.0433 80.9589 82.387 80.7334 81.0302Z" fill="#FBBEBE"/>
<path opacity="0.1" d="M87.8481 79.4848C87.3604 80.755 87.1099 82.1137 86.5354 83.3474C86.384 83.7332 86.1243 84.0673 85.7875 84.3096C85.1707 84.6945 84.3553 84.4559 83.7424 84.0729C83.1294 83.6899 82.5858 83.1626 81.9169 82.9086C81.6162 85.8319 79.1836 88.405 76.2768 88.8746C78.0116 90.4662 79.839 92.2349 80.2303 94.552C80.3035 94.9773 80.3286 95.4296 80.556 95.7972C80.9223 96.3841 81.6953 96.5766 82.3892 96.567C84.1529 96.5535 85.7702 95.624 87.2429 94.6424C87.7402 94.3153 88.2433 93.965 88.5748 93.4723C88.9064 92.9796 89.049 92.3542 89.1743 91.7576C90.0263 87.7148 90.8777 83.6701 91.7284 79.6234C91.9597 78.5245 91.9211 76.3652 90.2133 76.5827C89.0548 76.752 88.2067 78.5553 87.8481 79.4848Z" fill="black"/>
<path d="M88.2336 79.4848C87.7459 80.755 87.4954 82.1137 86.9209 83.3474C86.7695 83.7332 86.5098 84.0673 86.173 84.3096C85.5562 84.6945 84.7408 84.4559 84.1279 84.0729C83.5149 83.6899 82.9713 83.1626 82.3024 82.9086C82.0017 85.8319 79.5691 88.405 76.6623 88.8746C78.3971 90.4662 80.2245 92.2349 80.6158 94.552C80.689 94.9773 80.7141 95.4296 80.9416 95.7972C81.3078 96.3841 82.0808 96.5766 82.7747 96.567C84.5384 96.5535 86.1557 95.624 87.6284 94.6424C88.1257 94.3153 88.6288 93.965 88.9603 93.4723C89.2919 92.9796 89.4345 92.3542 89.5598 91.7576C90.4118 87.7148 91.2632 83.6701 92.1139 79.6234C92.3452 78.5245 92.3066 76.3652 90.5988 76.5827C89.4403 76.752 88.5922 78.5553 88.2336 79.4848Z" fill="#F86D70"/>
<path d="M60.1139 86.9906C60.0445 87.3428 59.6956 87.5564 59.3795 87.7258C58.7685 88.0549 58.1034 88.3955 57.4153 88.3031C56.7271 88.2108 56.1508 87.7027 55.6997 87.1638C55.475 86.9075 55.281 86.6259 55.1214 86.3247C54.4256 84.9525 54.3504 79.1135 57.2264 81.0188C58.4138 81.8079 57.7449 83.155 57.8933 84.3155C57.9582 85.0038 58.2335 85.6554 58.6817 86.1823C58.7685 86.2824 60.0696 87.2177 60.1139 86.9906Z" fill="#F86D70"/>
<path d="M84.7177 51.5774C89.4551 51.5774 93.2955 49.768 93.2955 47.5359C93.2955 45.3038 89.4551 43.4944 84.7177 43.4944C79.9803 43.4944 76.1399 45.3038 76.1399 47.5359C76.1399 49.768 79.9803 51.5774 84.7177 51.5774Z" fill="#2F2E41"/>
<path opacity="0.1" d="M85.1032 50.2302C80.4616 50.2302 76.6854 48.4981 76.5332 46.3234C76.2869 46.6803 76.1527 47.1024 76.1476 47.5358C76.1476 49.7683 79.9874 51.5773 84.7254 51.5773C89.4634 51.5773 93.3032 49.7683 93.3032 47.5358C93.3032 47.4896 93.3032 47.4454 93.3032 47.4011C92.1948 49.0408 88.9449 50.2302 85.1032 50.2302Z" fill="black"/>
<path d="M122.402 78.9056C134.113 78.9056 143.606 70.2892 143.606 59.6603C143.606 49.0314 134.113 40.415 122.402 40.415C110.692 40.415 101.199 49.0314 101.199 59.6603C101.199 70.2892 110.692 78.9056 122.402 78.9056Z" fill="#2F2E41"/>
<path opacity="0.1" d="M122.402 73.9018C111.664 73.9018 102.789 66.654 101.391 57.2546C101.264 58.1148 101.199 58.9832 101.199 59.8528C101.199 70.4819 110.692 79.098 122.402 79.098C134.112 79.098 143.606 70.4819 143.606 59.8528C143.605 58.9832 143.541 58.1148 143.413 57.2546C142.015 66.654 133.141 73.9018 122.402 73.9018Z" fill="black"/>
<path d="M122.017 74.0944C127.659 74.0944 132.233 67.9336 132.233 60.334C132.233 52.7343 127.659 46.5736 122.017 46.5736C116.374 46.5736 111.8 52.7343 111.8 60.334C111.8 67.9336 116.374 74.0944 122.017 74.0944Z" fill="#2F2E41"/>
<path opacity="0.1" d="M122.017 74.0944C127.659 74.0944 132.233 67.9336 132.233 60.334C132.233 52.7343 127.659 46.5736 122.017 46.5736C116.374 46.5736 111.8 52.7343 111.8 60.334C111.8 67.9336 116.374 74.0944 122.017 74.0944Z" fill="black"/>
<path d="M117.319 67.3086C116.934 68.2593 116.163 69.2697 115.006 69.3428C116.548 70.6072 118.109 71.8851 119.952 72.8069C121.795 73.7288 123.977 74.2696 126.074 73.9386C127.555 73.7057 128.9 73.0571 130.157 72.347C132.296 71.1384 134.398 69.5506 134.939 67.399C133.333 67.4796 131.723 67.4494 130.12 67.3086C129.289 67.2374 128.439 67.1277 127.718 66.7659C127.276 66.5326 126.885 66.2132 126.568 65.8264C126.251 65.4397 126.015 64.9935 125.874 64.5142C125.587 63.6058 125.592 62.6493 125.644 61.7082C125.673 61.1597 125.694 60.5535 125.272 60.1339C124.85 59.7144 124.152 59.6586 123.518 59.6451C122.243 59.6192 120.967 59.6945 119.704 59.8703C119.041 59.9389 118.384 60.0579 117.739 60.2263C116.903 60.4803 116.982 60.3822 117.184 61.0808C117.813 63.2209 118.196 65.1454 117.319 67.3086Z" fill="#B34B5A"/>
<path opacity="0.1" d="M117.319 67.3086C116.934 68.2593 116.163 69.2697 115.006 69.3428C116.548 70.6072 118.109 71.8851 119.952 72.8069C121.795 73.7288 123.977 74.2696 126.074 73.9386C127.555 73.7057 128.9 73.0571 130.157 72.347C132.296 71.1384 134.398 69.5506 134.939 67.399C133.333 67.4796 131.723 67.4494 130.12 67.3086C129.289 67.2374 128.439 67.1277 127.718 66.7659C127.276 66.5326 126.885 66.2132 126.568 65.8264C126.251 65.4397 126.015 64.9935 125.874 64.5142C125.587 63.6058 125.592 62.6493 125.644 61.7082C125.673 61.1597 125.694 60.5535 125.272 60.1339C124.85 59.7144 124.152 59.6586 123.518 59.6451C122.243 59.6192 120.967 59.6945 119.704 59.8703C119.041 59.9389 118.384 60.0579 117.739 60.2263C116.903 60.4803 116.982 60.3822 117.184 61.0808C117.813 63.2209 118.196 65.1454 117.319 67.3086Z" fill="black"/>
<path d="M121.728 65.3378C126.731 65.3378 130.787 61.288 130.787 56.2925C130.787 51.2969 126.731 47.2472 121.728 47.2472C116.724 47.2472 112.668 51.2969 112.668 56.2925C112.668 61.288 116.724 65.3378 121.728 65.3378Z" fill="#B34B5A"/>
<path d="M118.605 68.1053C118.013 67.3971 117.404 66.6735 116.616 66.1923C115.324 65.4013 113.724 65.3513 112.211 65.3263C110.571 65.2974 108.788 65.3128 107.49 66.3155C106.912 66.7678 106.469 67.3875 106.047 67.9956L100.551 75.8862C100.337 76.1941 100.111 76.5424 100.165 76.9139C100.227 77.1812 100.36 77.4267 100.551 77.624L106.596 85.1605C106.941 85.5896 107.298 86.0419 107.413 86.5808C107.529 87.1196 107.386 87.6854 107.201 88.2089C106.471 90.2855 105.081 92.2504 105.208 94.4386C105.299 95.8666 106.047 97.1791 106.962 98.2877C109.063 100.815 112.088 102.458 115.251 103.355C118.414 104.252 121.735 104.448 125.026 104.469C131.229 104.51 137.748 103.834 142.871 100.341L138.845 96.5537C138.048 95.8031 137.214 94.9948 136.938 93.9363C136.745 93.2242 136.838 92.4737 136.925 91.7443C137.087 90.4106 137.248 89.0673 137.68 87.7971C138.881 84.2579 141.967 81.7387 144.026 78.619C144.284 78.2341 144.535 77.7915 144.506 77.3238C144.483 76.9293 144.263 76.5771 144.049 76.2461C143.108 74.7892 142.133 73.34 141.451 71.7465C140.942 70.561 140.597 69.3004 139.966 68.1746C139.336 67.0487 138.336 66.0364 137.075 65.7997C135.452 65.4956 133.869 66.5099 132.221 66.5792C131.015 66.6311 129.756 66.1789 128.628 66.608C127.291 67.118 126.701 68.623 125.951 69.8451C125.398 70.7554 123.748 73.2457 122.454 72.6337C121.751 72.2989 121.105 71.0941 120.6 70.5033L118.605 68.1053Z" fill="#F98A8D"/>
<path d="M125.822 74.2232C125.516 74.0513 125.162 73.9875 124.816 74.0423C124.644 74.0751 124.489 74.1634 124.374 74.2937C124.258 74.4239 124.189 74.5886 124.177 74.7621L123.62 74.7294C123.556 74.7225 123.491 74.7258 123.428 74.739C123.347 74.7563 123.277 74.8049 123.232 74.874C123.188 74.9431 123.172 75.0271 123.19 75.1075C123.207 75.1879 123.256 75.2581 123.325 75.3027C123.394 75.3473 123.478 75.3626 123.559 75.3452C123.285 75.4534 123.042 75.6249 122.847 75.8456C122.702 76.0639 122.649 76.3308 122.699 76.5881C122.75 76.8454 122.9 77.0724 123.117 77.2197C123.345 77.3506 123.613 77.3938 123.871 77.3414C124.129 77.2889 124.358 77.1444 124.517 76.9349C124.484 77.0499 124.493 77.1726 124.543 77.2815C124.592 77.3903 124.679 77.4782 124.787 77.5296C125.831 78.0934 126.363 77.3275 126.506 76.4403C126.668 75.4665 126.876 74.7428 125.822 74.2232Z" fill="#FFE9B3"/>
<path opacity="0.15" d="M125.822 74.2232C125.516 74.0513 125.162 73.9875 124.816 74.0423C124.644 74.0751 124.489 74.1634 124.374 74.2937C124.258 74.4239 124.189 74.5886 124.177 74.7621L123.62 74.7294C123.556 74.7225 123.491 74.7258 123.428 74.739C123.347 74.7563 123.277 74.8049 123.232 74.874C123.188 74.9431 123.172 75.0271 123.19 75.1075C123.207 75.1879 123.256 75.2581 123.325 75.3027C123.394 75.3473 123.478 75.3626 123.559 75.3452C123.285 75.4534 123.042 75.6249 122.847 75.8456C122.702 76.0639 122.649 76.3308 122.699 76.5881C122.75 76.8454 122.9 77.0724 123.117 77.2197C123.345 77.3506 123.613 77.3938 123.871 77.3414C124.129 77.2889 124.358 77.1444 124.517 76.9349C124.484 77.0499 124.493 77.1726 124.543 77.2815C124.592 77.3903 124.679 77.4782 124.787 77.5296C125.831 78.0934 126.363 77.3275 126.506 76.4403C126.668 75.4665 126.876 74.7428 125.822 74.2232Z" fill="black"/>
<path d="M128.667 73.5689C128.362 73.3968 128.007 73.3336 127.661 73.3899C127.49 73.422 127.335 73.51 127.219 73.64C127.104 73.77 127.036 73.9346 127.024 74.1078L126.467 74.075C126.403 74.0684 126.338 74.0717 126.275 74.0847C126.199 74.1083 126.135 74.1589 126.095 74.2268C126.055 74.2946 126.041 74.3749 126.057 74.4522C126.077 74.5285 126.126 74.5944 126.192 74.6368C126.259 74.6792 126.339 74.695 126.417 74.6813C126.144 74.79 125.9 74.9614 125.706 75.1817C125.561 75.4001 125.508 75.6668 125.559 75.924C125.609 76.1812 125.759 76.4081 125.976 76.5558C126.204 76.687 126.472 76.7306 126.73 76.6785C126.988 76.6265 127.218 76.4822 127.377 76.2729C127.345 76.3874 127.354 76.5097 127.403 76.6181C127.452 76.7266 127.538 76.8143 127.645 76.8656C128.692 77.4314 129.222 76.6732 129.367 75.7783C129.515 74.8121 129.727 74.0885 128.667 73.5689Z" fill="#FFE9B3"/>
<path d="M130.988 73.8999C130.683 73.7283 130.329 73.6651 129.983 73.721C129.812 73.7527 129.657 73.8405 129.541 73.9706C129.425 74.1006 129.357 74.2653 129.345 74.4388L128.788 74.4061C128.724 74.3992 128.659 74.4025 128.596 74.4157C128.52 74.4393 128.456 74.49 128.416 74.5578C128.376 74.6257 128.362 74.706 128.378 74.7833C128.398 74.8596 128.447 74.9254 128.513 74.9678C128.58 75.0102 128.66 75.0261 128.738 75.0123C128.464 75.12 128.221 75.2916 128.027 75.5127C127.881 75.731 127.828 75.9979 127.879 76.2552C127.929 76.5125 128.079 76.7395 128.297 76.8868C128.524 77.0183 128.792 77.0621 129.05 77.01C129.308 76.9579 129.538 76.8134 129.696 76.6039C129.664 76.7186 129.673 76.8411 129.722 76.9496C129.772 77.0581 129.858 77.1456 129.966 77.1966C131.011 77.7625 131.541 76.9946 131.685 76.1093C131.836 75.1528 132.04 74.4196 130.988 73.8999Z" fill="#FFE9B3"/>
<path opacity="0.15" d="M130.988 73.8999C130.683 73.7283 130.329 73.6651 129.983 73.721C129.812 73.7527 129.657 73.8405 129.541 73.9706C129.425 74.1006 129.357 74.2653 129.345 74.4388L128.788 74.4061C128.724 74.3992 128.659 74.4025 128.596 74.4157C128.52 74.4393 128.456 74.49 128.416 74.5578C128.376 74.6257 128.362 74.706 128.378 74.7833C128.398 74.8596 128.447 74.9254 128.513 74.9678C128.58 75.0102 128.66 75.0261 128.738 75.0123C128.464 75.12 128.221 75.2916 128.027 75.5127C127.881 75.731 127.828 75.9979 127.879 76.2552C127.929 76.5125 128.079 76.7395 128.297 76.8868C128.524 77.0183 128.792 77.0621 129.05 77.01C129.308 76.9579 129.538 76.8134 129.696 76.6039C129.664 76.7186 129.673 76.8411 129.722 76.9496C129.772 77.0581 129.858 77.1456 129.966 77.1966C131.011 77.7625 131.541 76.9946 131.685 76.1093C131.836 75.1528 132.04 74.4196 130.988 73.8999Z" fill="black"/>
<path d="M136.666 75.2491V95.9224C136.666 96.0539 136.613 96.1799 136.52 96.2729C136.427 96.3659 136.301 96.4184 136.169 96.4189H120.008C119.876 96.4184 119.75 96.3659 119.657 96.2729C119.564 96.1799 119.511 96.0539 119.511 95.9224V75.2491C119.511 75.1666 119.531 75.0854 119.57 75.0128C119.609 74.9402 119.666 74.8784 119.735 74.8332C119.804 74.7879 119.883 74.7605 119.966 74.7535C120.048 74.7465 120.131 74.7601 120.207 74.793C120.618 74.97 121.028 75.1336 121.438 75.2837C122.017 75.4954 122.595 75.6796 123.173 75.8361C123.751 75.992 124.33 76.1209 124.908 76.221C125.486 76.3211 126.065 76.398 126.643 76.4442C127.221 76.4904 127.799 76.5097 128.378 76.4981C128.956 76.4866 129.534 76.4539 130.112 76.3903C130.691 76.3268 131.269 76.2325 131.847 76.1113C132.426 75.9901 133.004 75.8476 133.582 75.6725C134.031 75.5359 134.482 75.3838 134.931 75.2145C135.278 75.0855 135.623 74.945 135.97 74.7949C136.046 74.7621 136.129 74.7485 136.211 74.7554C136.293 74.7623 136.372 74.7895 136.441 74.8346C136.51 74.8796 136.567 74.9411 136.606 75.0134C136.645 75.0858 136.666 75.1668 136.666 75.2491Z" fill="#BBBDC8"/>
<path d="M123.173 75.836V96.4285H121.438V75.2837C122.017 75.4954 122.595 75.6795 123.173 75.836Z" fill="white"/>
<path d="M126.643 76.4424V96.419H124.908V76.2114C125.486 76.323 126.065 76.3962 126.643 76.4424Z" fill="white"/>
<path d="M130.113 76.3884V96.4189H128.378V76.5C128.956 76.4898 129.534 76.4526 130.113 76.3884Z" fill="white"/>
<path d="M133.582 75.6704V96.4187H131.847V76.115C132.426 75.9944 133.004 75.8462 133.582 75.6704Z" fill="white"/>
<path opacity="0.1" d="M136.666 75.2491V95.9224C136.666 96.0539 136.613 96.1799 136.52 96.2729C136.427 96.3659 136.301 96.4184 136.169 96.4189H134.932V75.2125C135.278 75.0836 135.624 74.9431 135.97 74.793C136.046 74.7601 136.129 74.7465 136.211 74.7535C136.294 74.7605 136.373 74.7879 136.442 74.8332C136.511 74.8784 136.568 74.9402 136.607 75.0128C136.646 75.0854 136.666 75.1666 136.666 75.2491Z" fill="black"/>
<path d="M124.023 73.2381C123.719 73.0664 123.364 73.0033 123.019 73.0591C122.848 73.0908 122.692 73.1787 122.577 73.3087C122.461 73.4387 122.392 73.6035 122.381 73.7769L121.824 73.7442C121.76 73.7374 121.694 73.7406 121.631 73.7539C121.556 73.7775 121.492 73.8281 121.452 73.896C121.411 73.9638 121.398 74.0441 121.413 74.1214C121.434 74.1977 121.482 74.2635 121.549 74.3059C121.616 74.3483 121.696 74.3642 121.774 74.3505C121.5 74.4582 121.256 74.6297 121.062 74.8508C120.917 75.0692 120.864 75.336 120.914 75.5933C120.965 75.8506 121.115 76.0776 121.332 76.2249C121.56 76.356 121.828 76.3996 122.086 76.3475C122.343 76.2954 122.573 76.1512 122.732 75.942C122.699 76.0567 122.709 76.1792 122.758 76.2877C122.807 76.3962 122.894 76.4838 123.002 76.5348C124.046 77.0987 124.576 76.3327 124.721 75.4474C124.871 74.4813 125.08 73.7577 124.023 73.2381Z" fill="#FFE9B3"/>
<path d="M126.915 69.9663C126.61 69.7947 126.256 69.7315 125.91 69.7874C125.739 69.8191 125.583 69.9069 125.468 70.037C125.352 70.167 125.284 70.3318 125.272 70.5052L124.715 70.4725C124.651 70.4656 124.586 70.4689 124.522 70.4821C124.447 70.5058 124.383 70.5564 124.343 70.6242C124.303 70.6921 124.289 70.7724 124.305 70.8497C124.325 70.926 124.374 70.9918 124.44 71.0342C124.507 71.0766 124.587 71.0925 124.665 71.0787C124.391 71.1864 124.148 71.358 123.954 71.5791C123.808 71.7974 123.755 72.0643 123.806 72.3216C123.856 72.5789 124.006 72.8059 124.224 72.9532C124.451 73.0843 124.719 73.1279 124.977 73.0758C125.235 73.0237 125.464 72.8795 125.623 72.6703C125.591 72.785 125.6 72.9075 125.649 73.016C125.699 73.1245 125.785 73.212 125.893 73.2631C126.938 73.8269 127.468 73.061 127.612 72.1757C127.763 71.2096 127.971 70.486 126.915 69.9663Z" fill="#FFE9B3"/>
<path d="M128.879 74.4099C129.108 74.1445 129.239 73.8091 129.251 73.4592C129.254 73.2849 129.199 73.1144 129.094 72.9749C128.99 72.8354 128.841 72.7349 128.673 72.6894L128.813 72.1505C128.834 72.0885 128.844 72.0234 128.842 71.9581C128.839 71.8769 128.804 71.8003 128.744 71.7451C128.685 71.6899 128.605 71.6606 128.524 71.6636C128.443 71.6667 128.366 71.7019 128.311 71.7614C128.256 71.821 128.226 71.9 128.229 71.9812C128.177 71.6926 128.056 71.4207 127.876 71.1883C127.69 71.004 127.438 70.9006 127.175 70.9006C126.912 70.9006 126.66 71.004 126.473 71.1883C126.299 71.3852 126.203 71.6387 126.203 71.9013C126.203 72.1639 126.299 72.4174 126.473 72.6143C126.366 72.5604 126.244 72.5459 126.128 72.5734C126.011 72.6008 125.908 72.6685 125.837 72.7644C125.08 73.6767 125.729 74.3464 126.572 74.6601C127.493 74.9988 128.164 75.3452 128.879 74.4099Z" fill="#FFE9B3"/>
<path d="M131.385 74.4099C131.613 74.1445 131.745 73.8091 131.757 73.4592C131.76 73.2849 131.705 73.1144 131.6 72.9749C131.496 72.8354 131.347 72.7349 131.178 72.6894L131.319 72.1505C131.34 72.0885 131.349 72.0234 131.348 71.9581C131.345 71.8769 131.31 71.8003 131.25 71.7451C131.19 71.6899 131.111 71.6606 131.03 71.6636C130.949 71.6667 130.872 71.7019 130.817 71.7614C130.761 71.821 130.732 71.9 130.735 71.9812C130.682 71.6926 130.562 71.4207 130.382 71.1883C130.195 71.004 129.943 70.9006 129.681 70.9006C129.418 70.9006 129.166 71.004 128.979 71.1883C128.805 71.3852 128.709 71.6387 128.709 71.9013C128.709 72.1639 128.805 72.4174 128.979 72.6143C128.872 72.5604 128.75 72.5459 128.634 72.5734C128.517 72.6008 128.414 72.6685 128.343 72.7644C127.585 73.6767 128.235 74.3464 129.077 74.6601C129.999 74.9988 130.67 75.3452 131.385 74.4099Z" fill="#FFE9B3"/>
<path d="M132.954 76.0555C133.13 75.7529 133.198 75.3992 133.147 75.0528C133.116 74.8815 133.03 74.7252 132.901 74.6085C132.771 74.4918 132.607 74.4213 132.433 74.4081L132.474 73.8538C132.484 73.7901 132.484 73.7252 132.474 73.6614C132.456 73.5823 132.407 73.5136 132.338 73.4705C132.269 73.4273 132.186 73.4133 132.107 73.4314C132.027 73.4495 131.959 73.4983 131.915 73.5671C131.872 73.6358 131.858 73.7189 131.876 73.798C131.77 73.524 131.601 73.2788 131.383 73.0821C131.166 72.9347 130.899 72.8786 130.641 72.9262C130.382 72.9737 130.153 73.121 130.003 73.3361C129.869 73.5624 129.822 73.8296 129.872 74.0876C129.922 74.3456 130.064 74.5766 130.273 74.7372C130.158 74.7037 130.035 74.7119 129.926 74.7601C129.816 74.8083 129.727 74.8936 129.675 75.0008C129.097 76.0382 129.868 76.577 130.747 76.7329C131.701 76.885 132.426 77.1024 132.954 76.0555Z" fill="#FFE9B3"/>
<path d="M125.243 72.9761C125.42 72.6735 125.488 72.3198 125.436 71.9735C125.406 71.8022 125.319 71.6459 125.19 71.5291C125.061 71.4124 124.897 71.3419 124.723 71.3287L124.763 70.7745C124.773 70.7107 124.773 70.6458 124.763 70.582C124.745 70.5029 124.696 70.4342 124.628 70.3911C124.559 70.348 124.475 70.3339 124.396 70.352C124.317 70.3702 124.248 70.419 124.205 70.4877C124.162 70.5565 124.148 70.6396 124.166 70.7187C124.06 70.4447 123.891 70.1994 123.672 70.0027C123.455 69.8553 123.188 69.7993 122.93 69.8468C122.672 69.8944 122.443 70.0417 122.292 70.2568C122.158 70.483 122.112 70.7503 122.162 71.0083C122.211 71.2663 122.354 71.4973 122.562 71.6578C122.447 71.6244 122.324 71.6325 122.215 71.6808C122.106 71.729 122.017 71.8143 121.965 71.9215C121.386 72.9588 122.157 73.4977 123.036 73.6536C123.99 73.8056 124.715 74.0231 125.243 72.9761Z" fill="#FFE9B3"/>
<path d="M126.014 71.9136C125.709 71.7417 125.355 71.678 125.008 71.7327C124.837 71.7655 124.682 71.8539 124.566 71.9841C124.451 72.1143 124.382 72.279 124.37 72.4525L123.813 72.4198C123.749 72.413 123.684 72.4162 123.62 72.4294C123.54 72.4468 123.47 72.4953 123.425 72.5645C123.38 72.6336 123.365 72.7176 123.382 72.798C123.4 72.8783 123.448 72.9486 123.518 72.9931C123.587 73.0377 123.671 73.053 123.751 73.0356C123.478 73.1439 123.234 73.3154 123.04 73.536C122.895 73.7543 122.842 74.0212 122.892 74.2785C122.943 74.5358 123.093 74.7628 123.31 74.9101C123.538 75.041 123.806 75.0843 124.064 75.0318C124.321 74.9794 124.551 74.8348 124.709 74.6253C124.677 74.7403 124.686 74.863 124.736 74.9719C124.785 75.0807 124.871 75.1686 124.979 75.22C126.024 75.7839 126.556 75.0179 126.699 74.1307C126.861 73.1569 127.069 72.4333 126.014 71.9136Z" fill="#FFE9B3"/>
<path opacity="0.15" d="M126.014 71.9136C125.709 71.7417 125.355 71.678 125.008 71.7327C124.837 71.7655 124.682 71.8539 124.566 71.9841C124.451 72.1143 124.382 72.279 124.37 72.4525L123.813 72.4198C123.749 72.413 123.684 72.4162 123.62 72.4294C123.54 72.4468 123.47 72.4953 123.425 72.5645C123.38 72.6336 123.365 72.7176 123.382 72.798C123.4 72.8783 123.448 72.9486 123.518 72.9931C123.587 73.0377 123.671 73.053 123.751 73.0356C123.478 73.1439 123.234 73.3154 123.04 73.536C122.895 73.7543 122.842 74.0212 122.892 74.2785C122.943 74.5358 123.093 74.7628 123.31 74.9101C123.538 75.041 123.806 75.0843 124.064 75.0318C124.321 74.9794 124.551 74.8348 124.709 74.6253C124.677 74.7403 124.686 74.863 124.736 74.9719C124.785 75.0807 124.871 75.1686 124.979 75.22C126.024 75.7839 126.556 75.0179 126.699 74.1307C126.861 73.1569 127.069 72.4333 126.014 71.9136Z" fill="black"/>
<path d="M134.305 72.576C134 72.4038 133.645 72.3407 133.299 72.397C133.128 72.429 132.972 72.517 132.857 72.6469C132.741 72.7769 132.672 72.9415 132.661 73.1148L132.106 73.0821C132.041 73.0755 131.976 73.0787 131.913 73.0917C131.838 73.1154 131.774 73.166 131.733 73.2338C131.693 73.3017 131.68 73.382 131.695 73.4593C131.716 73.5356 131.764 73.6014 131.831 73.6438C131.897 73.6862 131.978 73.7021 132.056 73.6883C131.782 73.797 131.539 73.9685 131.344 74.1887C131.199 74.4072 131.146 74.6739 131.197 74.931C131.247 75.1882 131.397 75.4152 131.614 75.5628C131.842 75.6939 132.11 75.7375 132.367 75.6854C132.625 75.6333 132.855 75.4891 133.014 75.2799C132.981 75.3946 132.99 75.5171 133.04 75.6256C133.089 75.7341 133.176 75.8217 133.283 75.8727C134.328 76.4366 134.86 75.6706 135.003 74.7834C135.151 73.8192 135.359 73.0956 134.305 72.576Z" fill="#FFE9B3"/>
<path opacity="0.15" d="M134.305 72.576C134 72.4038 133.645 72.3407 133.299 72.397C133.128 72.429 132.972 72.517 132.857 72.6469C132.741 72.7769 132.672 72.9415 132.661 73.1148L132.106 73.0821C132.041 73.0755 131.976 73.0787 131.913 73.0917C131.838 73.1154 131.774 73.166 131.733 73.2338C131.693 73.3017 131.68 73.382 131.695 73.4593C131.716 73.5356 131.764 73.6014 131.831 73.6438C131.897 73.6862 131.978 73.7021 132.056 73.6883C131.782 73.797 131.539 73.9685 131.344 74.1887C131.199 74.4072 131.146 74.6739 131.197 74.931C131.247 75.1882 131.397 75.4152 131.614 75.5628C131.842 75.6939 132.11 75.7375 132.367 75.6854C132.625 75.6333 132.855 75.4891 133.014 75.2799C132.981 75.3946 132.99 75.5171 133.04 75.6256C133.089 75.7341 133.176 75.8217 133.283 75.8727C134.328 76.4366 134.86 75.6706 135.003 74.7834C135.151 73.8192 135.359 73.0956 134.305 72.576Z" fill="black"/>
<path d="M129.293 69.3042C128.988 69.1321 128.633 69.069 128.287 69.1253C128.116 69.1573 127.961 69.2452 127.845 69.3752C127.73 69.5051 127.661 69.6697 127.649 69.8431L127.094 69.8104C127.03 69.8037 126.965 69.807 126.901 69.82C126.826 69.8436 126.762 69.8943 126.722 69.9621C126.681 70.03 126.668 70.1103 126.683 70.1876C126.704 70.2639 126.752 70.3297 126.819 70.3721C126.886 70.4145 126.966 70.4304 127.044 70.4166C126.771 70.5253 126.527 70.6967 126.332 70.917C126.188 71.1355 126.135 71.4021 126.185 71.6593C126.236 71.9165 126.386 72.1434 126.602 72.2911C126.83 72.4222 127.098 72.4657 127.356 72.4136C127.613 72.3616 127.843 72.2174 128.002 72.0082C127.969 72.1229 127.979 72.2454 128.028 72.3539C128.077 72.4624 128.164 72.5499 128.272 72.6009C129.316 73.1648 129.848 72.3989 129.991 71.5117C130.139 70.5475 130.348 69.8239 129.293 69.3042Z" fill="#FFE9B3"/>
<path opacity="0.15" d="M129.293 69.3042C128.988 69.1321 128.633 69.069 128.287 69.1253C128.116 69.1573 127.961 69.2452 127.845 69.3752C127.73 69.5051 127.661 69.6697 127.649 69.8431L127.094 69.8104C127.03 69.8037 126.965 69.807 126.901 69.82C126.826 69.8436 126.762 69.8943 126.722 69.9621C126.681 70.03 126.668 70.1103 126.683 70.1876C126.704 70.2639 126.752 70.3297 126.819 70.3721C126.886 70.4145 126.966 70.4304 127.044 70.4166C126.771 70.5253 126.527 70.6967 126.332 70.917C126.188 71.1355 126.135 71.4021 126.185 71.6593C126.236 71.9165 126.386 72.1434 126.602 72.2911C126.83 72.4222 127.098 72.4657 127.356 72.4136C127.613 72.3616 127.843 72.2174 128.002 72.0082C127.969 72.1229 127.979 72.2454 128.028 72.3539C128.077 72.4624 128.164 72.5499 128.272 72.6009C129.316 73.1648 129.848 72.3989 129.991 71.5117C130.139 70.5475 130.348 69.8239 129.293 69.3042Z" fill="black"/>
<path d="M125.438 68.1494C125.133 67.9773 124.778 67.9142 124.432 67.9705C124.261 68.0025 124.105 68.0904 123.99 68.2204C123.874 68.3504 123.805 68.515 123.794 68.6883L123.239 68.6556C123.174 68.6489 123.109 68.6522 123.046 68.6652C122.971 68.6889 122.907 68.7395 122.866 68.8073C122.826 68.8752 122.813 68.9555 122.828 69.0328C122.849 69.1091 122.897 69.1749 122.964 69.2173C123.03 69.2597 123.111 69.2756 123.189 69.2618C122.915 69.3705 122.672 69.5419 122.477 69.7622C122.332 69.9807 122.279 70.2474 122.33 70.5045C122.38 70.7617 122.53 70.9887 122.747 71.1363C122.975 71.2674 123.243 71.311 123.5 71.2589C123.758 71.2068 123.988 71.0626 124.147 70.8534C124.114 70.9681 124.123 71.0906 124.173 71.1991C124.222 71.3076 124.309 71.3951 124.416 71.4462C125.461 72.01 125.993 71.2441 126.136 70.3569C126.284 69.3927 126.492 68.6691 125.438 68.1494Z" fill="#FFE9B3"/>
<path opacity="0.15" d="M125.438 68.1494C125.133 67.9773 124.778 67.9142 124.432 67.9705C124.261 68.0025 124.105 68.0904 123.99 68.2204C123.874 68.3504 123.805 68.515 123.794 68.6883L123.239 68.6556C123.174 68.6489 123.109 68.6522 123.046 68.6652C122.971 68.6889 122.907 68.7395 122.866 68.8073C122.826 68.8752 122.813 68.9555 122.828 69.0328C122.849 69.1091 122.897 69.1749 122.964 69.2173C123.03 69.2597 123.111 69.2756 123.189 69.2618C122.915 69.3705 122.672 69.5419 122.477 69.7622C122.332 69.9807 122.279 70.2474 122.33 70.5045C122.38 70.7617 122.53 70.9887 122.747 71.1363C122.975 71.2674 123.243 71.311 123.5 71.2589C123.758 71.2068 123.988 71.0626 124.147 70.8534C124.114 70.9681 124.123 71.0906 124.173 71.1991C124.222 71.3076 124.309 71.3951 124.416 71.4462C125.461 72.01 125.993 71.2441 126.136 70.3569C126.284 69.3927 126.492 68.6691 125.438 68.1494Z" fill="black"/>
<path d="M129.679 67.3797C129.374 67.2075 129.019 67.1444 128.673 67.2007C128.502 67.2328 128.346 67.3207 128.231 67.4506C128.115 67.5806 128.046 67.7452 128.035 67.9185L127.479 67.8858C127.415 67.8792 127.35 67.8824 127.287 67.8955C127.211 67.9191 127.147 67.9697 127.107 68.0376C127.067 68.1054 127.053 68.1857 127.069 68.263C127.089 68.3393 127.138 68.4051 127.204 68.4475C127.271 68.4899 127.351 68.5058 127.429 68.4921C127.156 68.6007 126.912 68.7722 126.718 68.9924C126.573 69.2109 126.52 69.4776 126.571 69.7348C126.621 69.9919 126.771 70.2189 126.988 70.3665C127.216 70.4976 127.484 70.5412 127.741 70.4891C127.999 70.437 128.229 70.2928 128.387 70.0836C128.355 70.1983 128.364 70.3208 128.414 70.4293C128.463 70.5378 128.549 70.6254 128.657 70.6764C129.702 71.2403 130.234 70.4743 130.377 69.5871C130.525 68.6229 130.733 67.8993 129.679 67.3797Z" fill="#FFE9B3"/>
<path opacity="0.15" d="M129.679 67.3797C129.374 67.2075 129.019 67.1444 128.673 67.2007C128.502 67.2328 128.346 67.3207 128.231 67.4506C128.115 67.5806 128.046 67.7452 128.035 67.9185L127.479 67.8858C127.415 67.8792 127.35 67.8824 127.287 67.8955C127.211 67.9191 127.147 67.9697 127.107 68.0376C127.067 68.1054 127.053 68.1857 127.069 68.263C127.089 68.3393 127.138 68.4051 127.204 68.4475C127.271 68.4899 127.351 68.5058 127.429 68.4921C127.156 68.6007 126.912 68.7722 126.718 68.9924C126.573 69.2109 126.52 69.4776 126.571 69.7348C126.621 69.9919 126.771 70.2189 126.988 70.3665C127.216 70.4976 127.484 70.5412 127.741 70.4891C127.999 70.437 128.229 70.2928 128.387 70.0836C128.355 70.1983 128.364 70.3208 128.414 70.4293C128.463 70.5378 128.549 70.6254 128.657 70.6764C129.702 71.2403 130.234 70.4743 130.377 69.5871C130.525 68.6229 130.733 67.8993 129.679 67.3797Z" fill="black"/>
<path d="M131.221 68.5345C130.916 68.3623 130.561 68.2992 130.215 68.3555C130.044 68.3875 129.888 68.4755 129.773 68.6054C129.657 68.7354 129.588 68.9 129.577 69.0733L129.022 69.0406C128.957 69.034 128.892 69.0372 128.829 69.0502C128.753 69.0739 128.69 69.1245 128.649 69.1923C128.609 69.2602 128.595 69.3405 128.611 69.4178C128.631 69.4941 128.68 69.5599 128.747 69.6023C128.813 69.6447 128.894 69.6606 128.971 69.6468C128.698 69.7555 128.455 69.927 128.26 70.1472C128.115 70.3657 128.062 70.6324 128.113 70.8895C128.163 71.1467 128.313 71.3737 128.53 71.5213C128.758 71.6524 129.026 71.696 129.283 71.6439C129.541 71.5918 129.771 71.4476 129.929 71.2384C129.897 71.3531 129.906 71.4756 129.956 71.5841C130.005 71.6926 130.091 71.7802 130.199 71.8312C131.244 72.3951 131.776 71.6291 131.919 70.7419C132.067 69.7777 132.275 69.0541 131.221 68.5345Z" fill="#FFE9B3"/>
<path opacity="0.15" d="M131.221 68.5345C130.916 68.3623 130.561 68.2992 130.215 68.3555C130.044 68.3875 129.888 68.4755 129.773 68.6054C129.657 68.7354 129.588 68.9 129.577 69.0733L129.022 69.0406C128.957 69.034 128.892 69.0372 128.829 69.0502C128.753 69.0739 128.69 69.1245 128.649 69.1923C128.609 69.2602 128.595 69.3405 128.611 69.4178C128.631 69.4941 128.68 69.5599 128.747 69.6023C128.813 69.6447 128.894 69.6606 128.971 69.6468C128.698 69.7555 128.455 69.927 128.26 70.1472C128.115 70.3657 128.062 70.6324 128.113 70.8895C128.163 71.1467 128.313 71.3737 128.53 71.5213C128.758 71.6524 129.026 71.696 129.283 71.6439C129.541 71.5918 129.771 71.4476 129.929 71.2384C129.897 71.3531 129.906 71.4756 129.956 71.5841C130.005 71.6926 130.091 71.7802 130.199 71.8312C131.244 72.3951 131.776 71.6291 131.919 70.7419C132.067 69.7777 132.275 69.0541 131.221 68.5345Z" fill="black"/>
<path d="M121.776 72.576C121.47 72.4038 121.116 72.3407 120.77 72.397C120.598 72.429 120.443 72.517 120.327 72.6469C120.212 72.7769 120.143 72.9415 120.131 73.1148L119.576 73.0821C119.512 73.0755 119.447 73.0787 119.384 73.0917C119.308 73.1154 119.244 73.166 119.204 73.2338C119.164 73.3017 119.15 73.382 119.166 73.4593C119.186 73.5356 119.235 73.6014 119.301 73.6438C119.368 73.6862 119.448 73.7021 119.526 73.6883C119.253 73.797 119.009 73.9685 118.815 74.1887C118.67 74.4072 118.617 74.6739 118.668 74.931C118.718 75.1882 118.868 75.4152 119.085 75.5628C119.313 75.6939 119.58 75.7375 119.838 75.6854C120.096 75.6333 120.325 75.4891 120.484 75.2799C120.452 75.3946 120.461 75.5171 120.51 75.6256C120.56 75.7341 120.646 75.8217 120.754 75.8727C121.799 76.4366 122.331 75.6706 122.473 74.7834C122.622 73.8192 122.83 73.0956 121.776 72.576Z" fill="#FFE9B3"/>
<path opacity="0.15" d="M121.776 72.576C121.47 72.4038 121.116 72.3407 120.77 72.397C120.598 72.429 120.443 72.517 120.327 72.6469C120.212 72.7769 120.143 72.9415 120.131 73.1148L119.576 73.0821C119.512 73.0755 119.447 73.0787 119.384 73.0917C119.308 73.1154 119.244 73.166 119.204 73.2338C119.164 73.3017 119.15 73.382 119.166 73.4593C119.186 73.5356 119.235 73.6014 119.301 73.6438C119.368 73.6862 119.448 73.7021 119.526 73.6883C119.253 73.797 119.009 73.9685 118.815 74.1887C118.67 74.4072 118.617 74.6739 118.668 74.931C118.718 75.1882 118.868 75.4152 119.085 75.5628C119.313 75.6939 119.58 75.7375 119.838 75.6854C120.096 75.6333 120.325 75.4891 120.484 75.2799C120.452 75.3946 120.461 75.5171 120.51 75.6256C120.56 75.7341 120.646 75.8217 120.754 75.8727C121.799 76.4366 122.331 75.6706 122.473 74.7834C122.622 73.8192 122.83 73.0956 121.776 72.576Z" fill="black"/>
<path d="M132.956 69.8816C132.65 69.7095 132.296 69.6464 131.949 69.7026C131.778 69.7347 131.623 69.8226 131.507 69.9526C131.392 70.0825 131.323 70.2471 131.311 70.4205L130.756 70.3878C130.692 70.3811 130.627 70.3844 130.564 70.3974C130.488 70.421 130.424 70.4717 130.384 70.5395C130.344 70.6074 130.33 70.6877 130.346 70.765C130.366 70.8413 130.415 70.9071 130.481 70.9495C130.548 70.9919 130.628 71.0078 130.706 70.994C130.433 71.1027 130.189 71.2741 129.995 71.4944C129.85 71.7129 129.797 71.9795 129.848 72.2367C129.898 72.4939 130.048 72.7209 130.265 72.8685C130.493 72.9996 130.76 73.0431 131.018 72.9911C131.276 72.939 131.505 72.7948 131.664 72.5856C131.632 72.7003 131.641 72.8228 131.69 72.9313C131.74 73.0398 131.826 73.1273 131.934 73.1784C132.979 73.7422 133.511 72.9763 133.653 72.0891C133.802 71.1249 134.01 70.4012 132.956 69.8816Z" fill="#FFE9B3"/>
<path opacity="0.15" d="M132.956 69.8816C132.65 69.7095 132.296 69.6464 131.949 69.7026C131.778 69.7347 131.623 69.8226 131.507 69.9526C131.392 70.0825 131.323 70.2471 131.311 70.4205L130.756 70.3878C130.692 70.3811 130.627 70.3844 130.564 70.3974C130.488 70.421 130.424 70.4717 130.384 70.5395C130.344 70.6074 130.33 70.6877 130.346 70.765C130.366 70.8413 130.415 70.9071 130.481 70.9495C130.548 70.9919 130.628 71.0078 130.706 70.994C130.433 71.1027 130.189 71.2741 129.995 71.4944C129.85 71.7129 129.797 71.9795 129.848 72.2367C129.898 72.4939 130.048 72.7209 130.265 72.8685C130.493 72.9996 130.76 73.0431 131.018 72.9911C131.276 72.939 131.505 72.7948 131.664 72.5856C131.632 72.7003 131.641 72.8228 131.69 72.9313C131.74 73.0398 131.826 73.1273 131.934 73.1784C132.979 73.7422 133.511 72.9763 133.653 72.0891C133.802 71.1249 134.01 70.4012 132.956 69.8816Z" fill="black"/>
<path d="M136.618 71.8062C136.313 71.6341 135.958 71.5709 135.612 71.6272C135.441 71.6593 135.285 71.7472 135.17 71.8771C135.054 72.0071 134.985 72.1717 134.974 72.3451L134.419 72.3123C134.354 72.3057 134.289 72.3089 134.226 72.322C134.151 72.3456 134.087 72.3962 134.047 72.4641C134.006 72.5319 133.993 72.6122 134.008 72.6895C134.029 72.7658 134.077 72.8317 134.144 72.8741C134.211 72.9164 134.291 72.9323 134.369 72.9186C134.095 73.0273 133.852 73.1987 133.657 73.4189C133.512 73.6374 133.459 73.9041 133.51 74.1613C133.56 74.4184 133.71 74.6454 133.927 74.793C134.155 74.9241 134.423 74.9677 134.681 74.9156C134.938 74.8635 135.168 74.7193 135.327 74.5101C135.294 74.6248 135.304 74.7473 135.353 74.8558C135.402 74.9643 135.489 75.0519 135.597 75.1029C136.641 75.6668 137.173 74.9008 137.316 74.0136C137.464 73.0494 137.673 72.3258 136.618 71.8062Z" fill="#FFE9B3"/>
<path opacity="0.15" d="M136.618 71.8062C136.313 71.6341 135.958 71.5709 135.612 71.6272C135.441 71.6593 135.285 71.7472 135.17 71.8771C135.054 72.0071 134.985 72.1717 134.974 72.3451L134.419 72.3123C134.354 72.3057 134.289 72.3089 134.226 72.322C134.151 72.3456 134.087 72.3962 134.047 72.4641C134.006 72.5319 133.993 72.6122 134.008 72.6895C134.029 72.7658 134.077 72.8317 134.144 72.8741C134.211 72.9164 134.291 72.9323 134.369 72.9186C134.095 73.0273 133.852 73.1987 133.657 73.4189C133.512 73.6374 133.459 73.9041 133.51 74.1613C133.56 74.4184 133.71 74.6454 133.927 74.793C134.155 74.9241 134.423 74.9677 134.681 74.9156C134.938 74.8635 135.168 74.7193 135.327 74.5101C135.294 74.6248 135.304 74.7473 135.353 74.8558C135.402 74.9643 135.489 75.0519 135.597 75.1029C136.641 75.6668 137.173 74.9008 137.316 74.0136C137.464 73.0494 137.673 72.3258 136.618 71.8062Z" fill="black"/>
<path d="M133.534 67.5721C133.229 67.3999 132.874 67.3368 132.528 67.3931C132.357 67.4251 132.201 67.5131 132.086 67.643C131.97 67.773 131.901 67.9376 131.89 68.1109L131.335 68.0782C131.27 68.0715 131.205 68.0748 131.142 68.0878C131.067 68.1115 131.003 68.1621 130.962 68.2299C130.922 68.2978 130.909 68.3781 130.924 68.4554C130.945 68.5317 130.993 68.5975 131.06 68.6399C131.126 68.6823 131.207 68.6982 131.285 68.6844C131.011 68.7931 130.768 68.9646 130.573 69.1848C130.428 69.4033 130.375 69.67 130.426 69.9271C130.476 70.1843 130.626 70.4113 130.843 70.5589C131.071 70.69 131.339 70.7336 131.596 70.6815C131.854 70.6294 132.084 70.4852 132.243 70.276C132.21 70.3907 132.219 70.5132 132.269 70.6217C132.318 70.7302 132.404 70.8178 132.512 70.8688C133.557 71.4327 134.089 70.6667 134.232 69.7795C134.38 68.8153 134.588 68.0917 133.534 67.5721Z" fill="#FFE9B3"/>
<path opacity="0.15" d="M133.534 67.5721C133.229 67.3999 132.874 67.3368 132.528 67.3931C132.357 67.4251 132.201 67.5131 132.086 67.643C131.97 67.773 131.901 67.9376 131.89 68.1109L131.335 68.0782C131.27 68.0715 131.205 68.0748 131.142 68.0878C131.067 68.1115 131.003 68.1621 130.962 68.2299C130.922 68.2978 130.909 68.3781 130.924 68.4554C130.945 68.5317 130.993 68.5975 131.06 68.6399C131.126 68.6823 131.207 68.6982 131.285 68.6844C131.011 68.7931 130.768 68.9646 130.573 69.1848C130.428 69.4033 130.375 69.67 130.426 69.9271C130.476 70.1843 130.626 70.4113 130.843 70.5589C131.071 70.69 131.339 70.7336 131.596 70.6815C131.854 70.6294 132.084 70.4852 132.243 70.276C132.21 70.3907 132.219 70.5132 132.269 70.6217C132.318 70.7302 132.404 70.8178 132.512 70.8688C133.557 71.4327 134.089 70.6667 134.232 69.7795C134.38 68.8153 134.588 68.0917 133.534 67.5721Z" fill="black"/>
<path d="M136.231 72.2064C136.407 71.9037 136.475 71.5501 136.423 71.2037C136.393 71.0324 136.307 70.8761 136.177 70.7594C136.048 70.6426 135.884 70.5721 135.71 70.559L135.751 70.0047C135.761 69.9409 135.761 69.876 135.751 69.8123C135.742 69.7731 135.725 69.7361 135.702 69.7033C135.679 69.6705 135.649 69.6427 135.615 69.6213C135.581 69.6 135.543 69.5855 135.503 69.5788C135.463 69.5721 135.423 69.5733 135.384 69.5823C135.344 69.5912 135.307 69.6078 135.274 69.6311C135.242 69.6544 135.214 69.6839 135.192 69.718C135.171 69.752 135.156 69.7899 135.15 69.8295C135.143 69.8692 135.144 69.9097 135.153 69.9489C135.047 69.6749 134.878 69.4297 134.66 69.233C134.442 69.0855 134.176 69.0295 133.917 69.0771C133.659 69.1246 133.43 69.2719 133.28 69.487C133.146 69.7132 133.099 69.9805 133.149 70.2385C133.199 70.4965 133.341 70.7275 133.549 70.8881C133.435 70.8546 133.312 70.8627 133.202 70.911C133.093 70.9592 133.004 71.0445 132.952 71.1517C132.374 72.189 133.145 72.7279 134.024 72.8838C134.978 73.0358 135.703 73.2533 136.231 72.2064Z" fill="#FFE9B3"/>
<path d="M136.231 69.127C136.407 68.8244 136.475 68.4707 136.423 68.1243C136.393 67.9531 136.307 67.7968 136.177 67.68C136.048 67.5633 135.884 67.4928 135.71 67.4796L135.751 66.9254C135.761 66.8616 135.761 66.7967 135.751 66.7329C135.733 66.6538 135.684 66.5851 135.615 66.542C135.546 66.4989 135.463 66.4848 135.384 66.5029C135.304 66.521 135.236 66.5699 135.192 66.6386C135.149 66.7074 135.135 66.7904 135.153 66.8696C135.047 66.5956 134.878 66.3503 134.66 66.1536C134.442 66.0062 134.176 65.9502 133.917 65.9977C133.659 66.0453 133.43 66.1926 133.28 66.4077C133.146 66.6339 133.099 66.9012 133.149 67.1592C133.199 67.4172 133.341 67.6482 133.549 67.8087C133.435 67.7753 133.312 67.7834 133.202 67.8316C133.093 67.8799 133.004 67.9651 132.952 68.0724C132.374 69.1097 133.145 69.6486 134.024 69.8045C134.978 69.9565 135.703 70.174 136.231 69.127Z" fill="#FFE9B3"/>
<path d="M132.954 73.1688C133.13 72.8662 133.198 72.5125 133.147 72.1661C133.116 71.9948 133.03 71.8385 132.901 71.7218C132.771 71.605 132.607 71.5345 132.433 71.5214L132.474 70.9671C132.484 70.9033 132.484 70.8384 132.474 70.7747C132.456 70.6955 132.407 70.6269 132.338 70.5837C132.269 70.5406 132.186 70.5266 132.107 70.5447C132.027 70.5628 131.959 70.6116 131.915 70.6804C131.872 70.7491 131.858 70.8322 131.876 70.9113C131.77 70.6373 131.601 70.3921 131.383 70.1954C131.166 70.0479 130.899 69.9919 130.641 70.0395C130.382 70.087 130.153 70.2343 130.003 70.4494C129.869 70.6757 129.822 70.9429 129.872 71.2009C129.922 71.4589 130.064 71.6899 130.273 71.8505C130.158 71.817 130.035 71.8251 129.926 71.8734C129.816 71.9216 129.727 72.0069 129.675 72.1141C129.097 73.1515 129.868 73.6903 130.747 73.8462C131.701 73.9982 132.426 74.2157 132.954 73.1688Z" fill="#FFE9B3"/>
<path d="M136.616 76.6329C136.793 76.3303 136.861 75.9766 136.809 75.6302C136.779 75.4589 136.692 75.3026 136.563 75.1859C136.434 75.0691 136.269 74.9986 136.096 74.9855L136.136 74.4312C136.146 74.3674 136.146 74.3025 136.136 74.2388C136.118 74.1597 136.069 74.091 136 74.0478C135.932 74.0047 135.848 73.9907 135.769 74.0088C135.69 74.0269 135.621 74.0757 135.578 74.1445C135.535 74.2132 135.521 74.2963 135.539 74.3754C135.433 74.1014 135.264 73.8562 135.045 73.6595C134.828 73.512 134.561 73.456 134.303 73.5036C134.045 73.5511 133.815 73.6984 133.665 73.9135C133.531 74.1398 133.485 74.407 133.535 74.665C133.584 74.923 133.727 75.154 133.935 75.3146C133.82 75.2811 133.697 75.2892 133.588 75.3375C133.479 75.3857 133.39 75.471 133.337 75.5782C132.759 76.6155 133.53 77.1544 134.409 77.3103C135.363 77.4623 136.088 77.6798 136.616 76.6329Z" fill="#FFE9B3"/>
<path d="M129.677 77.98C129.854 77.6774 129.922 77.3238 129.87 76.9774C129.839 76.8061 129.753 76.6498 129.624 76.533C129.495 76.4163 129.33 76.3458 129.156 76.3327L129.197 75.7784C129.207 75.7146 129.207 75.6497 129.197 75.5859C129.179 75.5068 129.13 75.4381 129.061 75.395C128.992 75.3519 128.909 75.3378 128.83 75.356C128.75 75.3741 128.682 75.4229 128.639 75.4916C128.595 75.5604 128.581 75.6435 128.599 75.7226C128.493 75.4486 128.324 75.2034 128.106 75.0067C127.889 74.8592 127.622 74.8032 127.364 74.8508C127.105 74.8983 126.876 75.0456 126.726 75.2607C126.592 75.4869 126.546 75.7542 126.595 76.0122C126.645 76.2702 126.787 76.5012 126.996 76.6617C126.881 76.6283 126.758 76.6364 126.649 76.6847C126.539 76.7329 126.451 76.8182 126.398 76.9254C125.82 77.9627 126.591 78.5016 127.47 78.6575C128.424 78.8095 129.149 79.027 129.677 77.98Z" fill="#FFE9B3"/>
<path d="M128.135 70.0894C128.311 69.7868 128.379 69.4331 128.328 69.0868C128.297 68.9155 128.211 68.7592 128.082 68.6424C127.952 68.5257 127.788 68.4552 127.614 68.442L127.655 67.8878C127.665 67.824 127.665 67.7591 127.655 67.6953C127.637 67.6162 127.588 67.5475 127.519 67.5044C127.45 67.4613 127.367 67.4472 127.288 67.4653C127.208 67.4835 127.14 67.5323 127.096 67.601C127.053 67.6698 127.039 67.7528 127.057 67.832C126.951 67.558 126.782 67.3127 126.564 67.116C126.347 66.9686 126.08 66.9126 125.822 66.9601C125.563 67.0077 125.334 67.155 125.184 67.3701C125.05 67.5963 125.003 67.8636 125.053 68.1216C125.103 68.3796 125.245 68.6106 125.454 68.7711C125.339 68.7377 125.216 68.7458 125.107 68.794C124.997 68.8423 124.908 68.9276 124.856 69.0348C124.278 70.0721 125.049 70.611 125.928 70.7669C126.882 70.9189 127.607 71.1364 128.135 70.0894Z" fill="#FFE9B3"/>
<path d="M132.183 69.127C132.359 68.8244 132.427 68.4707 132.376 68.1243C132.345 67.9531 132.259 67.7968 132.13 67.68C132 67.5633 131.836 67.4928 131.662 67.4796L131.703 66.9254C131.713 66.8616 131.713 66.7967 131.703 66.7329C131.685 66.6538 131.636 66.5851 131.567 66.542C131.498 66.4989 131.415 66.4848 131.336 66.5029C131.256 66.521 131.188 66.5699 131.144 66.6386C131.101 66.7074 131.087 66.7904 131.105 66.8696C130.999 66.5956 130.83 66.3503 130.612 66.1536C130.395 66.0062 130.128 65.9502 129.87 65.9977C129.611 66.0453 129.382 66.1926 129.232 66.4077C129.098 66.6339 129.051 66.9012 129.101 67.1592C129.151 67.4172 129.293 67.6482 129.502 67.8087C129.387 67.7753 129.264 67.7834 129.155 67.8316C129.045 67.8799 128.956 67.9651 128.904 68.0724C128.326 69.1097 129.097 69.6486 129.976 69.8045C130.93 69.9565 131.655 70.174 132.183 69.127Z" fill="#FFE9B3"/>
<path d="M124.087 72.7838C124.263 72.4811 124.331 72.1275 124.28 71.7811C124.249 71.6098 124.163 71.4535 124.034 71.3368C123.905 71.22 123.74 71.1495 123.566 71.1364L123.607 70.5821C123.617 70.5183 123.617 70.4534 123.607 70.3896C123.589 70.3105 123.54 70.2419 123.471 70.1987C123.402 70.1556 123.319 70.1415 123.24 70.1597C123.16 70.1778 123.092 70.2266 123.048 70.2953C123.005 70.3641 122.991 70.4472 123.009 70.5263C122.903 70.2523 122.734 70.0071 122.516 69.8104C122.299 69.6629 122.032 69.6069 121.774 69.6545C121.515 69.702 121.286 69.8493 121.136 70.0644C121.002 70.2906 120.956 70.5579 121.005 70.8159C121.055 71.0739 121.197 71.3049 121.406 71.4655C121.291 71.432 121.168 71.4401 121.059 71.4884C120.949 71.5366 120.861 71.6219 120.808 71.7291C120.23 72.7664 121.001 73.3053 121.88 73.4612C122.834 73.6132 123.559 73.8307 124.087 72.7838Z" fill="#FFE9B3"/>
<path d="M121.016 81.6115C122.019 81.5307 123.007 81.2747 124.014 81.2882C125.33 81.3055 126.597 81.7809 127.796 82.3236C128.148 82.4593 128.471 82.6604 128.748 82.9164C128.945 83.1438 129.089 83.4128 129.169 83.7033C129.248 83.9938 129.261 84.2984 129.207 84.5946C129.094 85.1868 128.859 85.7491 128.516 86.2458C128.166 86.802 127.732 87.3505 127.121 87.593C126.779 87.7107 126.42 87.7725 126.059 87.7758C124.549 87.8586 123.011 87.7758 121.579 87.2927C120.845 87.0426 120.149 86.6923 119.43 86.3959C117.138 85.449 114.659 85.0757 112.224 84.5984C112.101 84.5837 111.983 84.538 111.881 84.4656C111.374 84.0287 112.475 82.4545 112.733 82.0138C113.169 81.2651 113.564 81.1843 114.447 81.1631C116.652 81.1073 118.805 81.7482 121.016 81.6115Z" fill="#B34B5A"/>
<path d="M138.166 86.9368C137.468 86.5943 136.842 86.1208 136.15 85.7648C135.278 85.3173 134.32 85.0632 133.341 85.02C132.707 84.9911 132.017 85.0758 131.556 85.5127C130.899 86.1362 130.978 87.1966 131.194 88.0761C131.522 89.3944 132.181 90.7897 133.447 91.2882C133.945 91.4543 134.465 91.5433 134.989 91.5518C137.335 91.7135 139.777 91.8598 141.952 90.9745C142.111 90.9249 142.248 90.8206 142.337 90.68C142.432 90.4876 142.337 90.2566 142.241 90.0622C141.894 89.3656 141.345 87.9049 140.674 87.4699C140.049 87.0523 138.945 87.3179 138.166 86.9368Z" fill="#B34B5A"/>
<path opacity="0.1" d="M143.679 76.4557C144.964 78.491 146.02 80.6615 146.829 82.9279C147.055 83.4852 147.185 84.0767 147.214 84.6773C147.214 85.3451 146.981 85.9917 146.736 86.623C145.956 88.6428 145.051 90.6122 144.026 92.5197C143.717 93.0971 143.365 93.6995 142.754 94.017C142.112 94.3519 141.321 94.2999 140.587 94.2095C138.747 94.0084 136.922 93.6857 135.124 93.2434C136.256 93.2799 137.277 92.4331 137.8 91.5113C138.322 90.5894 138.438 89.5348 138.525 88.5052C138.604 87.9507 138.58 87.3864 138.455 86.8405C138.382 86.5587 138.242 86.2987 138.046 86.0826C137.851 85.8665 137.607 85.7007 137.333 85.5991C137.281 85.0968 137.761 84.6754 138.257 84.4444C138.752 84.2135 139.315 84.0845 139.718 83.7381C140.311 83.23 140.396 82.3813 140.202 81.6616C140.007 80.9418 139.583 80.2913 139.282 79.6004C138.86 78.6381 141.038 77.6258 141.125 76.5866C141.144 76.3518 140.978 76.779 141.125 76.5866C141.271 76.3941 142.181 77.0619 142.387 76.9715C143.743 76.3864 142.929 75.2664 143.679 76.4557Z" fill="black"/>
<path d="M144.099 76.4558C145.384 78.4914 146.441 80.6618 147.251 82.928C147.478 83.485 147.608 84.0766 147.636 84.6774C147.636 85.3452 147.403 85.9918 147.16 86.6231C146.379 88.6426 145.474 90.6119 144.45 92.5198C144.142 93.0972 143.789 93.6996 143.178 94.0171C142.536 94.352 141.744 94.3 141.011 94.2096C139.17 94.0089 137.344 93.6862 135.546 93.2434C136.676 93.28 137.7 92.4332 138.22 91.5114C138.74 90.5895 138.86 89.5349 138.947 88.5053C139.025 87.9508 139.002 87.3866 138.877 86.8405C138.803 86.5591 138.663 86.2994 138.468 86.0834C138.273 85.8674 138.028 85.7013 137.755 85.5992C137.701 85.0969 138.183 84.6754 138.679 84.4445C139.174 84.2136 139.737 84.0846 140.14 83.7382C140.732 83.2301 140.816 82.3814 140.622 81.6616C140.427 80.9419 140.003 80.2914 139.702 79.6005C139.282 78.6368 139.105 77.5845 139.19 76.5366C139.194 76.2969 139.264 76.063 139.394 75.8611C139.538 75.6894 139.723 75.5569 139.932 75.4762C141.293 74.8988 143.349 75.2664 144.099 76.4558Z" fill="#F98A8D"/>
<path opacity="0.1" d="M102.895 74.5467C101.644 75.7014 100.352 76.9215 99.7433 78.5131C99.4118 79.3811 99.3019 80.3164 99.194 81.2402C99.0128 82.8144 98.8489 84.5003 99.5795 85.9052C100.389 87.4449 102.085 88.2705 103.678 88.9691C104.228 89.2273 104.799 89.4409 105.383 89.608C106.15 89.779 106.931 89.8744 107.716 89.8929L115.752 90.3393C114.703 89.2847 114.033 87.6335 114.175 86.1535C114.304 84.8313 114.946 83.6189 115.592 82.4623C115.927 81.8656 116.307 81.2382 116.926 80.9438C114.308 80.3661 111.616 80.1973 108.946 80.4434C108.766 80.4588 108.56 80.4646 108.443 80.3222C108.384 80.2328 108.357 80.1265 108.365 80.02C108.365 78.8249 109.26 77.8318 109.63 76.6964C110.222 74.8758 108.207 75.8746 106.395 75.2491C104.584 74.6236 103.265 72.6683 102.895 74.5467Z" fill="black"/>
<path d="M102.317 74.5466C101.066 75.7013 99.7741 76.9214 99.165 78.513C98.8335 79.381 98.7236 80.3163 98.6157 81.2401C98.4345 82.8143 98.2706 84.5002 99.0012 85.9051C99.8108 87.4448 101.507 88.2704 103.099 88.969C103.65 89.2272 104.22 89.4408 104.805 89.6079C105.571 89.7789 106.353 89.8743 107.138 89.8928L115.174 90.3392C114.125 89.2846 113.454 87.6334 113.597 86.1534C113.726 84.8312 114.368 83.6188 115.014 82.4622C115.349 81.8656 115.729 81.2382 116.348 80.9437C113.729 80.366 111.037 80.1972 108.367 80.4433C108.188 80.4587 107.982 80.4645 107.864 80.3221C107.806 80.2327 107.779 80.1264 107.787 80.0199C107.787 78.8248 108.682 77.8317 109.052 76.6963C109.643 74.8757 108.614 72.6548 106.8 72.0254C104.986 71.3961 102.687 72.6682 102.317 74.5466Z" fill="#F98A8D"/>
<path d="M122.499 53.8869C127.875 53.8869 132.233 52.0774 132.233 49.8453C132.233 47.6133 127.875 45.8038 122.499 45.8038C117.122 45.8038 112.764 47.6133 112.764 49.8453C112.764 52.0774 117.122 53.8869 122.499 53.8869Z" fill="#2F2E41"/>
<path opacity="0.1" d="M122.306 52.1547C117.647 52.1547 113.753 50.7941 112.797 48.9792C112.652 49.2451 112.574 49.5425 112.571 49.8453C112.571 52.0777 116.93 53.8868 122.306 53.8868C127.682 53.8868 132.04 52.0777 132.04 49.8453C132.037 49.5425 131.96 49.2451 131.815 48.9792C130.858 50.7941 126.965 52.1547 122.306 52.1547Z" fill="black"/>
<path d="M135.462 52.5608C135.156 52.3887 134.801 52.3256 134.455 52.3818C134.284 52.4139 134.129 52.5018 134.013 52.6318C133.898 52.7617 133.829 52.9263 133.817 53.0997L133.262 53.067C133.198 53.0603 133.133 53.0636 133.069 53.0766C132.994 53.1002 132.93 53.1509 132.89 53.2187C132.85 53.2866 132.836 53.3669 132.852 53.4442C132.872 53.5205 132.921 53.5863 132.987 53.6287C133.054 53.6711 133.134 53.687 133.212 53.6732C132.939 53.7819 132.695 53.9533 132.501 54.1736C132.356 54.3921 132.303 54.6587 132.353 54.9159C132.404 55.1731 132.554 55.4 132.771 55.5477C132.998 55.6788 133.266 55.7223 133.524 55.6703C133.782 55.6182 134.011 55.474 134.17 55.2648C134.138 55.3795 134.147 55.502 134.196 55.6105C134.246 55.719 134.332 55.8065 134.44 55.8576C135.485 56.4214 136.017 55.6555 136.159 54.7683C136.308 53.8041 136.516 53.0804 135.462 52.5608Z" fill="#FFE9B3"/>
<path opacity="0.15" d="M135.462 52.5608C135.156 52.3887 134.801 52.3256 134.455 52.3818C134.284 52.4139 134.129 52.5018 134.013 52.6318C133.898 52.7617 133.829 52.9263 133.817 53.0997L133.262 53.067C133.198 53.0603 133.133 53.0636 133.069 53.0766C132.994 53.1002 132.93 53.1509 132.89 53.2187C132.85 53.2866 132.836 53.3669 132.852 53.4442C132.872 53.5205 132.921 53.5863 132.987 53.6287C133.054 53.6711 133.134 53.687 133.212 53.6732C132.939 53.7819 132.695 53.9533 132.501 54.1736C132.356 54.3921 132.303 54.6587 132.353 54.9159C132.404 55.1731 132.554 55.4 132.771 55.5477C132.998 55.6788 133.266 55.7223 133.524 55.6703C133.782 55.6182 134.011 55.474 134.17 55.2648C134.138 55.3795 134.147 55.502 134.196 55.6105C134.246 55.719 134.332 55.8065 134.44 55.8576C135.485 56.4214 136.017 55.6555 136.159 54.7683C136.308 53.8041 136.516 53.0804 135.462 52.5608Z" fill="black"/>
<path d="M144.714 67.1873C144.409 67.0152 144.054 66.952 143.708 67.0083C143.537 67.0404 143.381 67.1283 143.266 67.2582C143.15 67.3882 143.081 67.5528 143.07 67.7262L142.515 67.6934C142.45 67.6868 142.385 67.69 142.322 67.7031C142.247 67.7267 142.183 67.7773 142.142 67.8452C142.102 67.913 142.089 67.9933 142.104 68.0707C142.125 68.1469 142.173 68.2128 142.24 68.2552C142.306 68.2976 142.387 68.3134 142.465 68.2997C142.191 68.4084 141.948 68.5798 141.753 68.8C141.608 69.0185 141.555 69.2852 141.606 69.5424C141.656 69.7995 141.806 70.0265 142.023 70.1742C142.251 70.3052 142.519 70.3488 142.776 70.2967C143.034 70.2446 143.264 70.1005 143.423 69.8912C143.39 70.006 143.399 70.1284 143.449 70.2369C143.498 70.3455 143.585 70.433 143.692 70.484C144.737 71.0479 145.269 70.2819 145.412 69.3947C145.56 68.4305 145.768 67.7069 144.714 67.1873Z" fill="#FFE9B3"/>
<path opacity="0.15" d="M144.714 67.1873C144.409 67.0152 144.054 66.952 143.708 67.0083C143.537 67.0404 143.381 67.1283 143.266 67.2582C143.15 67.3882 143.081 67.5528 143.07 67.7262L142.515 67.6934C142.45 67.6868 142.385 67.69 142.322 67.7031C142.247 67.7267 142.183 67.7773 142.142 67.8452C142.102 67.913 142.089 67.9933 142.104 68.0707C142.125 68.1469 142.173 68.2128 142.24 68.2552C142.306 68.2976 142.387 68.3134 142.465 68.2997C142.191 68.4084 141.948 68.5798 141.753 68.8C141.608 69.0185 141.555 69.2852 141.606 69.5424C141.656 69.7995 141.806 70.0265 142.023 70.1742C142.251 70.3052 142.519 70.3488 142.776 70.2967C143.034 70.2446 143.264 70.1005 143.423 69.8912C143.39 70.006 143.399 70.1284 143.449 70.2369C143.498 70.3455 143.585 70.433 143.692 70.484C144.737 71.0479 145.269 70.2819 145.412 69.3947C145.56 68.4305 145.768 67.7069 144.714 67.1873Z" fill="black"/>
<path d="M155.509 82.7759C155.203 82.6038 154.848 82.5407 154.502 82.5969C154.331 82.629 154.176 82.7169 154.06 82.8469C153.945 82.9768 153.876 83.1414 153.864 83.3148L153.309 83.2821C153.245 83.2754 153.18 83.2786 153.116 83.2917C153.041 83.3153 152.977 83.3659 152.937 83.4338C152.897 83.5017 152.883 83.582 152.899 83.6593C152.919 83.7355 152.967 83.8014 153.034 83.8438C153.101 83.8862 153.181 83.9021 153.259 83.8883C152.986 83.997 152.742 84.1684 152.548 84.3887C152.403 84.6071 152.35 84.8738 152.4 85.131C152.451 85.3881 152.601 85.6151 152.818 85.7628C153.045 85.8938 153.313 85.9374 153.571 85.8853C153.829 85.8332 154.058 85.6891 154.217 85.4799C154.185 85.5946 154.194 85.717 154.243 85.8256C154.293 85.9341 154.379 86.0216 154.487 86.0726C155.532 86.6365 156.064 85.8705 156.206 84.9833C156.355 84.0191 156.563 83.2955 155.509 82.7759Z" fill="#FFE9B3"/>
<path opacity="0.15" d="M155.509 82.7759C155.203 82.6038 154.848 82.5407 154.502 82.5969C154.331 82.629 154.176 82.7169 154.06 82.8469C153.945 82.9768 153.876 83.1414 153.864 83.3148L153.309 83.2821C153.245 83.2754 153.18 83.2786 153.116 83.2917C153.041 83.3153 152.977 83.3659 152.937 83.4338C152.897 83.5017 152.883 83.582 152.899 83.6593C152.919 83.7355 152.967 83.8014 153.034 83.8438C153.101 83.8862 153.181 83.9021 153.259 83.8883C152.986 83.997 152.742 84.1684 152.548 84.3887C152.403 84.6071 152.35 84.8738 152.4 85.131C152.451 85.3881 152.601 85.6151 152.818 85.7628C153.045 85.8938 153.313 85.9374 153.571 85.8853C153.829 85.8332 154.058 85.6891 154.217 85.4799C154.185 85.5946 154.194 85.717 154.243 85.8256C154.293 85.9341 154.379 86.0216 154.487 86.0726C155.532 86.6365 156.064 85.8705 156.206 84.9833C156.355 84.0191 156.563 83.2955 155.509 82.7759Z" fill="black"/>
<path d="M138.929 48.3422C139.106 48.0396 139.174 47.6859 139.122 47.3396C139.092 47.1683 139.005 47.012 138.876 46.8952C138.747 46.7785 138.583 46.708 138.409 46.6948L138.449 46.1406C138.459 46.0768 138.459 46.0119 138.449 45.9481C138.431 45.869 138.382 45.8003 138.313 45.7572C138.245 45.7141 138.161 45.7 138.082 45.7181C138.003 45.7363 137.934 45.7851 137.891 45.8538C137.848 45.9226 137.834 46.0056 137.852 46.0848C137.746 45.8108 137.577 45.5655 137.358 45.3688C137.141 45.2214 136.874 45.1654 136.616 45.2129C136.358 45.2605 136.129 45.4078 135.978 45.6229C135.844 45.8491 135.798 46.1164 135.848 46.3744C135.897 46.6324 136.04 46.8634 136.248 47.0239C136.133 46.9905 136.01 46.9986 135.901 47.0468C135.792 47.0951 135.703 47.1804 135.65 47.2876C135.072 48.3249 135.843 48.8638 136.722 49.0197C137.676 49.1717 138.401 49.3892 138.929 48.3422Z" fill="#FFE9B3"/>
<path d="M137.773 41.6064C137.949 41.3038 138.017 40.9501 137.966 40.6037C137.935 40.4324 137.849 40.2761 137.72 40.1594C137.59 40.0427 137.426 39.9722 137.252 39.959L137.293 39.4047C137.303 39.341 137.303 39.2761 137.293 39.2123C137.275 39.1332 137.226 39.0645 137.157 39.0214C137.088 38.9782 137.005 38.9642 136.926 38.9823C136.846 39.0004 136.778 39.0492 136.734 39.118C136.691 39.1867 136.677 39.2698 136.695 39.3489C136.589 39.0749 136.42 38.8297 136.202 38.633C135.985 38.4856 135.718 38.4295 135.459 38.4771C135.201 38.5246 134.972 38.6719 134.822 38.887C134.688 39.1133 134.641 39.3805 134.691 39.6385C134.741 39.8965 134.883 40.1275 135.092 40.2881C134.977 40.2546 134.854 40.2628 134.745 40.311C134.635 40.3593 134.546 40.4445 134.494 40.5518C133.916 41.5891 134.687 42.1279 135.566 42.2838C136.52 42.4359 137.245 42.6533 137.773 41.6064Z" fill="#FFE9B3"/>
<path d="M108.861 97.0174C108.556 96.8452 108.201 96.7821 107.855 96.8384C107.684 96.8704 107.528 96.9584 107.413 97.0883C107.297 97.2183 107.228 97.3829 107.217 97.5562L106.661 97.5235C106.598 97.5137 106.533 97.5137 106.469 97.5235C106.393 97.5472 106.329 97.5978 106.289 97.6656C106.249 97.7335 106.235 97.8138 106.251 97.8911C106.271 97.9674 106.32 98.0332 106.386 98.0756C106.453 98.118 106.533 98.1339 106.611 98.1201C106.338 98.2288 106.094 98.4002 105.9 98.6205C105.755 98.839 105.702 99.1057 105.753 99.3628C105.803 99.62 105.953 99.847 106.17 99.9946C106.398 100.126 106.666 100.169 106.923 100.117C107.181 100.065 107.411 99.9209 107.569 99.7117C107.537 99.8264 107.546 99.9489 107.596 100.057C107.645 100.166 107.731 100.253 107.839 100.304C108.884 100.868 109.416 100.112 109.559 99.2152C109.707 98.2606 109.915 97.537 108.861 97.0174Z" fill="#FFE9B3"/>
<path opacity="0.15" d="M108.861 97.0174C108.556 96.8452 108.201 96.7821 107.855 96.8384C107.684 96.8704 107.528 96.9584 107.413 97.0883C107.297 97.2183 107.228 97.3829 107.217 97.5562L106.661 97.5235C106.598 97.5137 106.533 97.5137 106.469 97.5235C106.393 97.5472 106.329 97.5978 106.289 97.6656C106.249 97.7335 106.235 97.8138 106.251 97.8911C106.271 97.9674 106.32 98.0332 106.386 98.0756C106.453 98.118 106.533 98.1339 106.611 98.1201C106.338 98.2288 106.094 98.4002 105.9 98.6205C105.755 98.839 105.702 99.1057 105.753 99.3628C105.803 99.62 105.953 99.847 106.17 99.9946C106.398 100.126 106.666 100.169 106.923 100.117C107.181 100.065 107.411 99.9209 107.569 99.7117C107.537 99.8264 107.546 99.9489 107.596 100.057C107.645 100.166 107.731 100.253 107.839 100.304C108.884 100.868 109.416 100.112 109.559 99.2152C109.707 98.2606 109.915 97.537 108.861 97.0174Z" fill="black"/>
<path d="M101.92 96.648C102.096 96.3454 102.164 95.9917 102.112 95.6453C102.082 95.4741 101.995 95.3177 101.866 95.201C101.737 95.0843 101.573 95.0138 101.399 95.0006L101.44 94.4464C101.449 94.3826 101.449 94.3177 101.44 94.2539C101.421 94.1748 101.373 94.1061 101.304 94.063C101.235 94.0198 101.152 94.0058 101.072 94.0239C100.993 94.042 100.924 94.0908 100.881 94.1596C100.838 94.2284 100.824 94.3114 100.842 94.3905C100.736 94.1166 100.567 93.8713 100.349 93.6746C100.131 93.5272 99.8646 93.4712 99.6063 93.5187C99.3479 93.5663 99.1187 93.7136 98.9684 93.9287C98.8346 94.1549 98.7882 94.4221 98.8379 94.6802C98.8876 94.9382 99.03 95.1692 99.2383 95.3297C99.1235 95.2963 99.0006 95.3044 98.8913 95.3526C98.782 95.4009 98.6932 95.4861 98.6407 95.5934C98.0625 96.6307 98.8335 97.1696 99.7125 97.3254C100.667 97.4775 101.391 97.6949 101.92 96.648Z" fill="#FFE9B3"/>
<path d="M111.172 86.063C111.349 85.7604 111.417 85.4068 111.365 85.0604C111.334 84.8891 111.248 84.7328 111.119 84.616C110.99 84.4993 110.825 84.4288 110.652 84.4157L110.692 83.8614C110.702 83.7976 110.702 83.7327 110.692 83.6689C110.674 83.5898 110.625 83.5212 110.556 83.478C110.487 83.4349 110.404 83.4208 110.325 83.439C110.246 83.4571 110.177 83.5059 110.134 83.5746C110.09 83.6434 110.076 83.7265 110.095 83.8056C109.989 83.5316 109.819 83.2864 109.601 83.0897C109.384 82.9422 109.117 82.8862 108.859 82.9338C108.6 82.9813 108.371 83.1286 108.221 83.3437C108.087 83.5699 108.041 83.8372 108.09 84.0952C108.14 84.3532 108.282 84.5842 108.491 84.7447C108.376 84.7113 108.253 84.7194 108.144 84.7677C108.034 84.8159 107.946 84.9012 107.893 85.0084C107.315 86.0457 108.086 86.5846 108.965 86.7405C109.919 86.8925 110.644 87.11 111.172 86.063Z" fill="#FFE9B3"/>
<path d="M96.3622 89.5579C94.4848 89.0787 92.5302 88.5957 90.6334 88.9806C89.7891 89.1519 88.9911 89.4906 88.17 89.7504C86.1479 90.376 84.0107 90.5387 81.917 90.2266C79.8233 89.9144 77.827 89.1353 76.0763 87.9471C74.1101 86.5903 72.0669 84.6119 69.7383 85.1488C69.1119 85.2951 68.5317 85.6223 67.8917 85.6935C66.6908 85.8301 65.5786 85.0526 64.3873 84.8698C62.3364 84.5561 60.4724 85.9918 58.8956 87.339L50.5819 94.4424C49.9516 94.9813 49.2577 95.6933 49.4254 96.5016C49.6817 97.6891 51.5033 97.8488 51.9717 98.9747C52.311 99.781 51.75 100.72 51.0079 101.18C50.2658 101.64 49.3675 101.758 48.5348 102.037C47.2766 102.457 46.1489 103.196 45.2612 104.181C44.3736 105.166 43.7562 106.363 43.4691 107.656C43.3226 108.345 43.2763 109.061 43.0045 109.712C42.7115 110.42 42.1815 111.001 41.7902 111.659C40.0785 114.527 41.2022 118.332 39.903 121.407C39.2149 123.039 37.8367 124.617 38.2723 126.332C38.6694 127.887 40.3792 128.682 41.9347 129.094C42.1178 130.152 41.742 130.899 40.9709 131.659C47.438 134.313 54.3793 137.023 61.2396 135.666C63.5932 135.202 65.8851 134.261 68.283 134.299C69.9851 134.326 71.6678 134.85 73.3661 134.73C76.9494 134.478 80.2399 131.42 83.7114 132.338C82.6648 132.409 82.2773 133.938 82.8941 134.786C83.511 135.635 84.6463 135.906 85.6911 136.006C86.7358 136.107 87.8423 136.114 88.7482 136.645C88.062 138.071 85.6043 138.57 85.8414 140.138C85.9282 140.704 86.3869 141.133 86.8419 141.486C91.5163 145.059 97.9544 144.717 103.805 145.335C108.119 145.785 112.348 146.838 116.648 147.4C123.518 148.295 130.483 147.929 137.399 147.559C138.654 147.492 140.061 147.353 140.868 146.391C141.94 145.109 141.345 143.21 141.21 141.547C140.685 135.04 147.814 130.562 149.811 124.346C150.582 121.919 150.549 119.311 150.41 116.765C150.1 111.022 149.199 104.964 145.533 100.53C142.515 96.8731 138.002 94.8138 133.509 93.305C130.648 92.3427 127.651 91.5518 124.642 91.8347C119.592 92.31 114.489 95.753 109.826 93.7592C108.593 93.2319 107.542 92.3601 106.37 91.7096C103.29 89.9717 99.7953 90.4336 96.3622 89.5579Z" fill="#EE1D1D"/>
<g opacity="0.1">
<path opacity="0.1" d="M122.443 142.388C118.142 141.826 113.921 140.779 109.599 140.323C103.743 139.711 97.3049 140.054 92.6363 136.474C92.1814 136.126 91.7226 135.704 91.6359 135.127C91.3988 133.562 93.8564 133.06 94.5427 131.634C93.6367 131.103 92.5322 131.097 91.4855 130.995C90.4388 130.893 89.3054 130.624 88.6886 129.775C88.0717 128.926 88.4592 127.398 89.5059 127.327C86.0362 126.409 82.7439 129.467 79.1605 129.719C77.4623 129.838 75.7795 129.315 74.0774 129.288C71.6795 129.249 69.3876 130.191 67.034 130.654C60.1737 132.001 53.2344 129.307 46.7654 126.647C47.5267 125.878 47.9065 125.141 47.7291 124.082C46.1774 123.67 44.4677 122.875 44.0667 121.32C43.6311 119.606 45.0093 118.027 45.6975 116.395C46.9967 113.316 45.8729 109.515 47.5846 106.648C47.9701 105.99 48.506 105.408 48.799 104.7C49.0669 104.05 49.117 103.334 49.2635 102.645C49.3267 102.343 49.4104 102.046 49.5141 101.756C49.1903 101.844 48.8626 101.925 48.5503 102.029C47.2921 102.45 46.1644 103.188 45.2767 104.173C44.3891 105.158 43.7717 106.355 43.4846 107.649C43.3381 108.337 43.2918 109.053 43.02 109.704C42.727 110.412 42.197 110.993 41.8057 111.652C40.094 114.519 41.2177 118.324 39.9185 121.399C39.2304 123.031 37.8522 124.609 38.2878 126.324C38.6849 127.879 40.3947 128.674 41.9502 129.086C42.1333 130.144 41.7575 130.891 40.9864 131.651C47.4554 134.305 54.3948 137.015 61.2551 135.658C63.6087 135.194 65.9006 134.253 68.2985 134.292C70.0006 134.319 71.6833 134.842 73.3816 134.723C76.9649 134.471 80.2553 131.413 83.7269 132.331C82.6803 132.402 82.2928 133.93 82.9096 134.779C83.5265 135.627 84.6618 135.899 85.7066 135.999C86.7513 136.099 87.8578 136.107 88.7637 136.638C88.0775 138.064 85.6198 138.562 85.8569 140.131C85.9437 140.697 86.4024 141.126 86.8573 141.478C91.5318 145.052 97.9699 144.709 103.82 145.327C108.134 145.777 112.363 146.83 116.664 147.392C123.534 148.287 130.498 147.921 137.414 147.552C138.669 147.484 140.076 147.346 140.884 146.383C141.722 145.379 141.539 143.997 141.356 142.644C135.041 142.971 128.702 143.204 122.443 142.388Z" fill="black"/>
<path opacity="0.1" d="M51.6942 98.5434C52.4569 97.8657 53.3512 97.3521 54.3215 97.0346C55.1542 96.7652 56.0563 96.6362 56.7946 96.1782C57.5329 95.7202 58.0996 94.7791 57.7584 93.9727C57.29 92.8545 55.4684 92.6871 55.212 91.4997C55.0945 90.9531 55.374 90.4508 55.7633 90.0159L50.58 94.4423C49.9497 94.9811 49.2558 95.6932 49.4235 96.5015C49.649 97.5177 51.0099 97.789 51.6942 98.5434Z" fill="black"/>
</g>
<path d="M69.1505 94.7232C69.3271 94.4206 69.3951 94.0669 69.3432 93.7205C69.3129 93.5493 69.2263 93.3929 69.0972 93.2762C68.9681 93.1595 68.8037 93.089 68.63 93.0758L68.6705 92.5216C68.6771 92.4573 68.6738 92.3924 68.6608 92.3291C68.6427 92.25 68.5938 92.1813 68.5249 92.1382C68.4561 92.095 68.3729 92.081 68.2936 92.0991C68.2144 92.1172 68.1456 92.166 68.1024 92.2348C68.0592 92.3036 68.0451 92.3866 68.0633 92.4657C67.9573 92.1918 67.7883 91.9465 67.5698 91.7498C67.3526 91.6024 67.0859 91.5464 66.8275 91.5939C66.5692 91.6415 66.34 91.7888 66.1897 92.0039C66.0559 92.2301 66.0095 92.4973 66.0592 92.7554C66.1089 93.0134 66.2512 93.2444 66.4595 93.4049C66.3448 93.3715 66.2219 93.3796 66.1125 93.4278C66.0032 93.4761 65.9145 93.5613 65.862 93.6686C65.2837 94.7059 66.0547 95.2448 66.9337 95.4007C67.8975 95.5527 68.6223 95.7702 69.1505 94.7232Z" fill="#FFE9B3"/>
<path d="M97.2933 132.059C97.4699 131.757 97.5379 131.403 97.4861 131.056C97.4558 130.885 97.3692 130.729 97.2401 130.612C97.111 130.495 96.9466 130.425 96.7729 130.412L96.8134 129.857C96.8232 129.794 96.8232 129.729 96.8134 129.665C96.7952 129.586 96.7463 129.517 96.6775 129.474C96.6086 129.431 96.5254 129.417 96.4462 129.435C96.3669 129.453 96.2981 129.502 96.2549 129.571C96.2117 129.639 96.1977 129.723 96.2158 129.802C96.1098 129.528 95.9408 129.282 95.7224 129.086C95.5051 128.938 95.2384 128.882 94.98 128.93C94.7217 128.977 94.4925 129.125 94.3422 129.34C94.2084 129.566 94.162 129.833 94.2117 130.091C94.2614 130.349 94.4038 130.58 94.6121 130.741C94.4973 130.707 94.3744 130.716 94.2651 130.764C94.1557 130.812 94.067 130.897 94.0145 131.004C93.4362 132.042 94.2073 132.581 95.0862 132.737C96.0404 132.889 96.7652 133.106 97.2933 132.059Z" fill="#FFE9B3"/>
<path d="M116.569 95.3009C116.746 94.9982 116.814 94.6446 116.762 94.2982C116.732 94.1269 116.645 93.9706 116.516 93.8538C116.387 93.7371 116.223 93.6666 116.049 93.6535L116.089 93.0992C116.099 93.0354 116.099 92.9705 116.089 92.9067C116.071 92.8276 116.022 92.7589 115.953 92.7158C115.885 92.6727 115.801 92.6586 115.722 92.6768C115.643 92.6949 115.574 92.7437 115.531 92.8124C115.488 92.8812 115.474 92.9643 115.492 93.0434C115.386 92.7694 115.217 92.5242 114.998 92.3275C114.781 92.18 114.514 92.124 114.256 92.1716C113.998 92.2191 113.768 92.3664 113.618 92.5815C113.484 92.8077 113.438 93.075 113.488 93.333C113.537 93.591 113.68 93.822 113.888 93.9826C113.773 93.9491 113.65 93.9572 113.541 94.0055C113.432 94.0537 113.343 94.139 113.29 94.2462C112.712 95.2835 113.483 95.8224 114.362 95.9783C115.316 96.1303 116.041 96.3478 116.569 95.3009Z" fill="#FFE9B3"/>
<path d="M120.195 94.8773C120.515 94.7356 120.778 94.4892 120.939 94.1787C121.016 94.023 121.039 93.8462 121.004 93.6762C120.969 93.5061 120.878 93.3525 120.746 93.2396L121.103 92.8123C121.149 92.7635 121.187 92.7076 121.215 92.6468C121.247 92.572 121.248 92.4876 121.217 92.4122C121.187 92.3368 121.128 92.2765 121.053 92.2446C120.978 92.2127 120.893 92.2118 120.818 92.2421C120.742 92.2724 120.682 92.3315 120.65 92.4062C120.725 92.1226 120.732 91.8252 120.671 91.5383C120.582 91.2913 120.398 91.0896 120.161 90.9768C119.924 90.864 119.651 90.8493 119.403 90.9359C119.162 91.0406 118.967 91.2297 118.856 91.4676C118.745 91.7054 118.725 91.9756 118.799 92.2272C118.726 92.1331 118.622 92.0677 118.506 92.0423C118.389 92.017 118.267 92.0334 118.161 92.0887C117.086 92.591 117.39 93.4724 118.015 94.1152C118.69 94.8177 119.148 95.4162 120.195 94.8773Z" fill="#FFE9B3"/>
<path d="M78.4048 95.8626C78.0996 95.6905 77.7447 95.6273 77.3986 95.6836C77.2276 95.7157 77.0721 95.8036 76.9566 95.9335C76.8411 96.0635 76.7722 96.2281 76.7606 96.4015L76.2055 96.3687C76.1416 96.3589 76.0766 96.3589 76.0127 96.3687C75.9374 96.3924 75.8734 96.443 75.8332 96.5108C75.793 96.5787 75.7794 96.659 75.7949 96.7363C75.8154 96.8126 75.8638 96.8784 75.9305 96.9208C75.9972 96.9632 76.0775 96.9791 76.1553 96.9654C75.8822 97.074 75.6385 97.2455 75.4441 97.4657C75.2991 97.6842 75.2462 97.9509 75.2967 98.2081C75.3472 98.4652 75.4971 98.6922 75.7139 98.8399C75.9417 98.9709 76.2095 99.0145 76.4672 98.9624C76.7248 98.9103 76.9546 98.7661 77.1134 98.5569C77.0809 98.6717 77.0902 98.7941 77.1396 98.9026C77.189 99.0112 77.2753 99.0987 77.3832 99.1497C78.428 99.7136 78.96 98.9573 79.1026 98.0604C79.2511 97.1058 79.4592 96.3822 78.4048 95.8626Z" fill="#FFE9B3"/>
<path opacity="0.15" d="M78.4048 95.8626C78.0996 95.6905 77.7447 95.6273 77.3986 95.6836C77.2276 95.7157 77.0721 95.8036 76.9566 95.9335C76.8411 96.0635 76.7722 96.2281 76.7606 96.4015L76.2055 96.3687C76.1416 96.3589 76.0766 96.3589 76.0127 96.3687C75.9374 96.3924 75.8734 96.443 75.8332 96.5108C75.793 96.5787 75.7794 96.659 75.7949 96.7363C75.8154 96.8126 75.8638 96.8784 75.9305 96.9208C75.9972 96.9632 76.0775 96.9791 76.1553 96.9654C75.8822 97.074 75.6385 97.2455 75.4441 97.4657C75.2991 97.6842 75.2462 97.9509 75.2967 98.2081C75.3472 98.4652 75.4971 98.6922 75.7139 98.8399C75.9417 98.9709 76.2095 99.0145 76.4672 98.9624C76.7248 98.9103 76.9546 98.7661 77.1134 98.5569C77.0809 98.6717 77.0902 98.7941 77.1396 98.9026C77.189 99.0112 77.2753 99.0987 77.3832 99.1497C78.428 99.7136 78.96 98.9573 79.1026 98.0604C79.2511 97.1058 79.4592 96.3822 78.4048 95.8626Z" fill="black"/>
<path d="M95.5681 110.179C95.6273 109.835 95.569 109.48 95.4024 109.173C95.315 109.022 95.1798 108.905 95.0181 108.84C94.8564 108.774 94.6776 108.765 94.5099 108.813L94.3557 108.278C94.3405 108.21 94.3145 108.145 94.2786 108.085C94.2341 108.017 94.1643 107.97 94.0846 107.953C94.0049 107.936 93.9218 107.951 93.8536 107.996C93.7853 108.04 93.7375 108.11 93.7207 108.19C93.7039 108.269 93.7194 108.352 93.7639 108.42C93.5707 108.199 93.3276 108.026 93.0546 107.916C92.7996 107.853 92.5298 107.892 92.3037 108.026C92.0776 108.159 91.9131 108.376 91.846 108.63C91.7985 108.888 91.8471 109.155 91.9827 109.38C92.1183 109.605 92.3315 109.773 92.5823 109.852C92.4631 109.86 92.3505 109.91 92.2645 109.993C92.1784 110.075 92.1244 110.186 92.112 110.304C91.9192 111.476 92.829 111.721 93.7138 111.559C94.6776 111.384 95.4294 111.334 95.5681 110.179Z" fill="#FFE9B3"/>
<path opacity="0.15" d="M95.5681 110.179C95.6273 109.835 95.569 109.48 95.4024 109.173C95.315 109.022 95.1798 108.905 95.0181 108.84C94.8564 108.774 94.6776 108.765 94.5099 108.813L94.3557 108.278C94.3405 108.21 94.3145 108.145 94.2786 108.085C94.2341 108.017 94.1643 107.97 94.0846 107.953C94.0049 107.936 93.9218 107.951 93.8536 107.996C93.7853 108.04 93.7375 108.11 93.7207 108.19C93.7039 108.269 93.7194 108.352 93.7639 108.42C93.5707 108.199 93.3276 108.026 93.0546 107.916C92.7996 107.853 92.5298 107.892 92.3037 108.026C92.0776 108.159 91.9131 108.376 91.846 108.63C91.7985 108.888 91.8471 109.155 91.9827 109.38C92.1183 109.605 92.3315 109.773 92.5823 109.852C92.4631 109.86 92.3505 109.91 92.2645 109.993C92.1784 110.075 92.1244 110.186 92.112 110.304C91.9192 111.476 92.829 111.721 93.7138 111.559C94.6776 111.384 95.4294 111.334 95.5681 110.179Z" fill="black"/>
<path d="M118.699 92.6661C118.758 92.3215 118.7 91.967 118.533 91.6595C118.446 91.5089 118.311 91.3916 118.149 91.3264C117.988 91.2612 117.809 91.2518 117.641 91.2997L117.487 90.7646C117.472 90.6968 117.446 90.6318 117.41 90.5722C117.388 90.5384 117.359 90.5094 117.326 90.4866C117.293 90.4638 117.255 90.4479 117.216 90.4395C117.176 90.4312 117.136 90.4308 117.096 90.4382C117.056 90.4456 117.018 90.4607 116.985 90.4827C116.951 90.5047 116.922 90.5331 116.899 90.5663C116.876 90.5995 116.86 90.6369 116.852 90.6763C116.843 90.7157 116.843 90.7564 116.85 90.796C116.858 90.8356 116.873 90.8733 116.895 90.907C116.702 90.6853 116.459 90.5125 116.186 90.4028C115.931 90.3395 115.661 90.3789 115.435 90.5125C115.209 90.6461 115.044 90.8632 114.977 91.1168C114.93 91.3751 114.978 91.6418 115.114 91.8669C115.249 92.0919 115.463 92.2597 115.713 92.3389C115.594 92.3469 115.482 92.3966 115.396 92.4794C115.31 92.5621 115.256 92.6725 115.243 92.7912C115.05 93.9632 115.96 94.2076 116.845 94.046C117.809 93.8708 118.56 93.8208 118.699 92.6661Z" fill="#FFE9B3"/>
<path opacity="0.15" d="M118.699 92.6661C118.758 92.3215 118.7 91.967 118.533 91.6595C118.446 91.5089 118.311 91.3916 118.149 91.3264C117.988 91.2612 117.809 91.2518 117.641 91.2997L117.487 90.7646C117.472 90.6968 117.446 90.6318 117.41 90.5722C117.388 90.5384 117.359 90.5094 117.326 90.4866C117.293 90.4638 117.255 90.4479 117.216 90.4395C117.176 90.4312 117.136 90.4308 117.096 90.4382C117.056 90.4456 117.018 90.4607 116.985 90.4827C116.951 90.5047 116.922 90.5331 116.899 90.5663C116.876 90.5995 116.86 90.6369 116.852 90.6763C116.843 90.7157 116.843 90.7564 116.85 90.796C116.858 90.8356 116.873 90.8733 116.895 90.907C116.702 90.6853 116.459 90.5125 116.186 90.4028C115.931 90.3395 115.661 90.3789 115.435 90.5125C115.209 90.6461 115.044 90.8632 114.977 91.1168C114.93 91.3751 114.978 91.6418 115.114 91.8669C115.249 92.0919 115.463 92.2597 115.713 92.3389C115.594 92.3469 115.482 92.3966 115.396 92.4794C115.31 92.5621 115.256 92.6725 115.243 92.7912C115.05 93.9632 115.96 94.2076 116.845 94.046C117.809 93.8708 118.56 93.8208 118.699 92.6661Z" fill="black"/>
</svg>
