<svg width="40" height="50" viewBox="0 0 40 50" fill="none" xmlns="http://www.w3.org/2000/svg">
<g clip-path="url(#clip0)">
<path d="M26.6454 7.29891C26.2633 6.33524 25.4684 5.67284 24.5497 5.67284C24.1456 5.67284 23.7654 5.80106 23.4338 6.02675C23.3427 6.08876 23.2288 6.0285 23.2078 5.90145C23.0123 4.72059 21.1779 4.34052 21.1779 4.34052C20.3947 4.34052 19.8854 4.91669 19.5313 5.71659C19.4839 5.82372 19.3734 5.8536 19.2962 5.77831C18.8119 5.30595 18.1165 4.79344 17.4545 4.79344C15.9683 4.79344 14.8561 6.22938 14.7192 8.04227C14.7096 8.16923 14.6092 8.24921 14.5123 8.20927C14.2735 8.11083 13.8168 7.98075 13.5515 7.98075C12.5061 7.98075 11.804 8.90751 11.4638 10.0669C11.4384 10.1535 11.3665 10.2052 11.2938 10.1895C11.0073 10.1282 10.5029 10.3051 10.1938 10.3577C8.79607 10.5957 8.11631 11.5447 8.05287 13.3062C7.97685 15.4157 9.93302 17.1293 11.6039 17.1293C13.1422 17.1293 29.089 16.6748 29.7949 16.6748C31.213 16.6748 34.1496 17.003 34.3132 15.2854C34.3261 15.1498 34.3331 15.0118 34.3331 14.8718C34.3331 12.9592 33.0927 11.4086 31.5626 11.4086C31.4929 11.4086 31.424 11.4119 31.3556 11.4183C31.2551 11.4276 31.177 11.3147 31.1914 11.1901C31.2261 10.889 31.2258 10.5737 31.1815 10.2494C30.9934 8.87304 30.0586 7.81962 28.9437 7.73475C28.5919 7.708 28.2551 7.77509 27.9477 7.91806L26.6454 7.29891Z" fill="#FFBF54"/>
<path d="M10.2659 15.4844C8.44406 15.4844 8.21242 10.6733 11.5462 10.941C11.7398 10.9565 11.9168 10.8174 11.9985 10.5976C12.3833 9.56279 13.2221 8.84521 14.1952 8.84521C14.3484 8.84521 14.4982 8.86309 14.6434 8.89717C14.9015 8.95771 15.1536 8.7542 15.1991 8.43096C15.4237 6.8335 16.362 5.69229 17.7345 5.69229C18.2828 5.69229 18.7265 5.87637 19.1271 6.20684C19.3305 6.37461 19.6029 6.3333 19.7548 6.09502C20.181 5.42637 20.9253 4.95557 21.6173 4.95557C22.1127 4.95557 22.8401 5.29219 23.2077 5.90146C23.0096 4.63145 22.1175 3.83301 21.1731 3.83301C20.39 3.83301 19.7084 4.3748 19.3543 5.17471C19.3069 5.28184 19.1964 5.31182 19.1191 5.23643C18.6348 4.76406 18.0256 4.48232 17.3637 4.48232C15.8775 4.48232 14.6572 5.90098 14.5202 7.71396C14.5106 7.84082 14.4102 7.9209 14.3134 7.88096C14.0746 7.78252 13.8194 7.7291 13.5541 7.7291C12.5086 7.7291 11.6178 8.55654 11.2777 9.71611C11.2523 9.80244 11.1807 9.854 11.1081 9.83848C10.7854 9.76934 10.4451 9.76475 10.0945 9.84219C8.84304 10.1187 7.87109 11.3918 7.69594 12.9488C7.55836 14.1145 7.90281 15.3419 8.59304 16.1442C9.11992 16.7644 9.82961 17.1444 10.6104 17.1444C12.1487 17.1444 30.8566 18.3349 31.5625 18.3349C32.9805 18.3349 34.1495 17.0028 34.313 15.2854C27.2383 15.3463 11.4652 15.4844 10.2659 15.4844Z" fill="#FFA442"/>
<path d="M31.1489 32.6904H10.2261L8.57812 19.6045L8.63797 19.2139L33.7607 19.2046L33.8906 19.6045L32.4595 30.542L31.1489 32.6904Z" fill="#F7F3F1"/>
<path d="M10.6588 30.1325L9.28125 19.6045L8.70445 19.1162L8.10938 19.6045L10.4605 37.5732H11.6323H31.5395L32.4595 30.542H11.0443C10.8529 30.542 10.6897 30.3687 10.6588 30.1325Z" fill="#EAE2DF"/>
<path d="M26.6987 37.5733H15.3012L14.1243 30.542L13.2656 19.6045L13.5183 19.2139L28.3855 19.2049L28.7344 19.6045L27.8757 30.542L26.6987 37.5733Z" fill="#FC5461"/>
<path d="M27.3238 37.5732L27.8757 30.542H14.1243L14.6763 37.5732H27.3238Z" fill="#DD3652"/>
<path d="M22.7954 32.6904H19.2046L18.7081 30.542L18.4219 19.6045L18.5715 19.2139L23.1741 19.1823L23.5781 19.6045L23.2919 30.542L22.7954 32.6904Z" fill="#F7F3F1"/>
<path d="M23.1079 37.5732L23.2919 30.542H18.7081L18.8921 37.5732H23.1079Z" fill="#EAE2DF"/>
<path d="M33.3022 19.1738L8.95708 19.2046C8.30989 19.2046 7.4145 18.335 7.4145 18.335C7.4145 17.8818 7.14114 17.2815 7.39974 17.0128C7.60278 16.8018 7.86372 16.6748 8.14841 16.6748H33.8515C34.4987 16.6748 35.0234 17.3307 35.0234 18.1396C35.0234 18.9486 33.9493 19.1738 33.3022 19.1738Z" fill="#FC5461"/>
<path d="M7.39977 17.0128C7.14125 17.2815 6.97656 17.6865 6.97656 18.1397C6.97656 18.9487 7.50125 19.6045 8.14844 19.6045H33.8516C34.4988 19.6045 35.0234 18.9487 35.0234 18.1397H8.53906C7.98508 18.1397 7.52203 17.6585 7.39977 17.0128Z" fill="#DD3652"/>
<path d="M1.82031 34.6436L1.74219 43.5303C1.74219 44.8786 2.61664 45.9717 3.69531 45.9717H17.2059C18.0019 45.9717 18.8498 45.5693 19.1526 44.7021C19.237 44.4605 19.2911 44.1981 19.3089 43.9218L19.4385 41.9131C19.5041 40.8959 20.1837 40.1123 21 40.1123C21.8163 40.1123 22.6748 40.4909 22.7404 41.5081L22.8473 43.7266C22.9291 44.9947 23.7763 45.9717 24.7941 45.9717L38.2257 45.9047C39.0266 45.9047 39.9498 45.5645 40.2512 44.7022C40.3559 44.4031 40.4141 44.0729 40.4141 43.7256V34.4482C40.4141 33.0999 39.5396 32.0068 38.4609 32.0068H3.53906C3.26937 32.0068 3.0125 32.0752 2.77883 32.1987C2.77172 32.2024 2.76477 32.2065 2.75773 32.2104C2.07273 32.591 1.82031 33.6425 1.82031 34.6436Z" fill="#F7F3F1"/>
<path d="M2.75781 43.7256L2.75773 32.2104C2.06805 32.5872 1.58594 33.4473 1.58594 34.4483V43.7256C1.58594 45.074 2.46039 46.167 3.53906 46.167H17.3621C18.1581 46.167 18.8498 45.5694 19.1526 44.7022H3.53906C3.10758 44.7022 2.75781 44.265 2.75781 43.7256Z" fill="#EAE2DF"/>
<path d="M23.9513 43.8021L23.8325 41.9124C23.7687 40.896 23.0902 40.112 22.2745 40.1122L21 40.1124C21.8163 40.1124 22.4959 40.896 22.5615 41.9132L22.6911 43.9219C22.7729 45.19 23.6201 46.167 24.6379 46.167H38.4609C39.2618 46.167 39.9498 45.5643 40.2513 44.7022L24.7301 44.7021C24.3223 44.7022 23.9832 44.3102 23.9513 43.8021Z" fill="#EAE2DF"/>
<path d="M16.2734 43.042H6.03906C5.82336 43.042 5.64844 42.8233 5.64844 42.5537V35.6201C5.64844 35.3505 5.82336 35.1318 6.03906 35.1318L6.66406 34.9365H16.4297C16.6454 34.9365 16.8203 35.1552 16.8203 35.4248V41.7725L16.6641 42.5537C16.6641 42.8233 16.4891 43.042 16.2734 43.042Z" fill="#8E73FF"/>
<path d="M7.05469 41.7725C6.83898 41.7725 6.66406 41.5538 6.66406 41.2842V34.9365H5.88281C5.66711 34.9365 5.49219 35.1552 5.49219 35.4248V42.749C5.49219 43.0187 5.66711 43.2373 5.88281 43.2373H16.4297C16.6454 43.2373 16.8203 43.0187 16.8203 42.749V41.7725H7.05469Z" fill="#7D67E5"/>
<path d="M35.9609 43.042H25.7266C25.5109 43.042 25.3359 42.8233 25.3359 42.5537V35.6201C25.3359 35.3505 25.5109 35.1318 25.7266 35.1318L26.3516 34.9365H36.1172C36.3329 34.9365 36.5078 35.1552 36.5078 35.4248V41.7725L36.3516 42.5537C36.3516 42.8233 36.1766 43.042 35.9609 43.042Z" fill="#FC5461"/>
<path d="M26.7422 41.7725C26.5265 41.7725 26.3516 41.5538 26.3516 41.2842V34.9365H25.5703C25.3546 34.9365 25.1797 35.1552 25.1797 35.4248V42.749C25.1797 43.0187 25.3546 43.2373 25.5703 43.2373H36.1172C36.3329 43.2373 36.5078 43.0187 36.5078 42.749V41.7725H26.7422Z" fill="#DD3652"/>
<path d="M40.4141 37.6776C40.7377 37.6776 41 37.3498 41 36.9452V34.4482C41 32.6981 39.8609 31.2744 38.4609 31.2744H32.9574L34.4031 20.2255C35.103 19.9355 35.6094 19.1104 35.6094 18.1396C35.6094 17.3304 35.2573 16.6224 34.7348 16.2411C34.8557 15.8026 34.9191 15.3396 34.9191 14.8718C34.9191 12.6589 33.5413 10.8406 31.8018 10.6867C31.7989 10.5005 31.7848 10.3142 31.7595 10.1285C31.5304 8.44502 30.3777 7.13223 29.0189 7.00713C28.7643 6.9835 28.5118 7.0002 28.2645 7.05518C27.9762 6.78291 27.4468 6.46787 26.924 6.46406C26.3787 5.51514 25.4984 4.94043 24.5498 4.94043C24.2329 4.94043 23.922 5.00361 23.6267 5.12627C23.2209 3.92344 22.2727 3.10059 21.1732 3.10059C20.3562 3.10059 19.5991 3.56738 19.101 4.33799C18.5776 3.95508 17.9794 3.75 17.3638 3.75C15.759 3.75 14.3879 5.16025 14.0191 7.04121C13.8663 7.01152 13.7111 6.99668 13.5542 6.99668C12.3954 6.99668 11.3689 7.80615 10.8652 9.06455C10.6216 9.04238 10.3767 9.05225 10.133 9.09355C8.44328 9.38125 7.16125 11.1343 7.08461 13.262C7.04859 14.2608 7.28305 15.2205 7.72656 16.0069C6.96047 16.2437 6.39062 17.1099 6.39062 18.1396C6.39062 19.1104 6.89703 19.9356 7.59688 20.2255L9.04258 31.2744H3.53906C2.13906 31.2744 1 32.6981 1 34.4482V43.7256C1 45.4757 2.13906 46.8994 3.53906 46.8994H17.3621C18.6756 46.8994 19.7873 45.6174 19.893 43.9807L20.0226 41.9721C20.0634 41.3398 20.4927 40.8447 21.0001 40.8447C21.5074 40.8447 21.9367 41.3398 21.9776 41.972L22.1072 43.9807C22.2128 45.6174 23.3245 46.8994 24.638 46.8994H38.4609C39.8609 46.8994 41 45.4757 41 43.7256V40.3632C41 39.9586 40.7377 39.6308 40.4141 39.6308C40.0905 39.6308 39.8281 39.9586 39.8281 40.3632V43.7256C39.8281 44.6679 39.2148 45.4346 38.4609 45.4346H24.6379C23.9306 45.4346 23.332 44.7442 23.2752 43.863L23.1455 41.8542C23.056 40.4668 22.1135 39.3799 21 39.3799C19.8865 39.3799 18.944 40.4668 18.8545 41.8543L18.7248 43.863C18.668 44.7441 18.0694 45.4346 17.3621 45.4346H3.53906C2.78523 45.4346 2.17188 44.6679 2.17188 43.7256V34.4482C2.17188 33.506 2.78523 32.7393 3.53906 32.7393H38.4609C39.2148 32.7393 39.8281 33.506 39.8281 34.4482V36.9452C39.8281 37.3498 40.0905 37.6776 40.4141 37.6776ZM28.407 31.2744L29.2656 20.3369H33.201L31.7699 31.2744H28.407ZM23.859 31.2744L24.1452 20.3369H28.0881L27.2295 31.2744H23.859ZM19.2296 28.0696C19.219 27.6653 18.9504 27.3465 18.6248 27.3615C18.3014 27.3748 18.0478 27.7133 18.0584 28.1175L18.1409 31.2744H14.7705L13.9118 20.3369H17.8547L17.9688 24.6955C17.9791 25.0917 18.2393 25.404 18.5541 25.404C18.5605 25.404 18.567 25.4039 18.5736 25.4036C18.897 25.3903 19.1506 25.0519 19.1401 24.6477L19.0273 20.3369H22.9727L22.6864 31.2744H19.3134L19.2296 28.0696ZM8.14844 17.4072H24.2763C24.5998 17.4072 24.8622 17.0794 24.8622 16.6748C24.8622 16.2702 24.5998 15.9424 24.2763 15.9424H9.33531C8.62961 15.3738 8.21719 14.3834 8.25523 13.3278C8.30562 11.9304 9.18086 10.734 10.2912 10.545C10.5651 10.4982 10.8413 10.512 11.1124 10.5854C11.41 10.6661 11.7073 10.4482 11.7966 10.0843C12.0348 9.11367 12.7412 8.46152 13.5542 8.46152C13.8052 8.46152 14.0485 8.52373 14.2774 8.64639C14.4564 8.74229 14.6616 8.7209 14.8253 8.58906C14.989 8.45742 15.0897 8.23271 15.094 7.98945C15.1212 6.45947 16.1394 5.21484 17.3637 5.21484C17.923 5.21484 18.4607 5.47168 18.8775 5.93809C19.0176 6.09482 19.2095 6.15801 19.393 6.10801C19.5768 6.05791 19.7301 5.90078 19.8053 5.68545C20.043 5.00508 20.5798 4.56543 21.1731 4.56543C21.9442 4.56543 22.5825 5.2876 22.6577 6.24512C22.6779 6.50205 22.8048 6.72686 22.9919 6.83652C23.1789 6.94629 23.3983 6.9248 23.5694 6.78008C23.8591 6.53486 24.198 6.40527 24.5498 6.40527C24.9579 6.40527 25.3448 6.5832 25.6519 6.89385C25.2695 7.18906 24.9548 7.62217 24.7616 8.15791C24.6285 8.52666 24.7598 8.96045 25.0548 9.12666C25.35 9.29307 25.6969 9.12881 25.8298 8.76006C26.0275 8.21231 26.4823 7.87949 26.9617 7.93184C27.2631 7.96475 27.5362 8.14248 27.7308 8.43223C27.9253 8.72197 28.0179 9.08906 27.9915 9.46592C27.9641 9.77871 28.1966 10.2524 28.5759 10.2621C28.8763 10.2621 29.1322 9.9748 29.1589 9.59346C29.1854 9.21445 29.1526 8.84033 29.0649 8.4876C29.835 8.63232 30.4717 9.40137 30.6042 10.3743C30.6452 10.6761 30.6379 10.9812 30.5821 11.2812C30.5383 11.5174 30.5908 11.7652 30.7222 11.9434C30.8537 12.1214 31.047 12.2072 31.2389 12.1713C31.3467 12.1513 31.4556 12.1411 31.5627 12.1411C32.7672 12.1411 33.7472 13.3661 33.7472 14.8719C33.7472 15.2414 33.6866 15.606 33.572 15.9425H27.0106C26.687 15.9425 26.4247 16.2703 26.4247 16.6749C26.4247 17.0795 26.687 17.4073 27.0106 17.4073H33.8516C34.1747 17.4073 34.4375 17.7358 34.4375 18.1397C34.4375 18.5437 34.1747 18.8722 33.8516 18.8722H8.14844C7.82531 18.8722 7.5625 18.5437 7.5625 18.1397C7.5625 17.7358 7.82531 17.4072 8.14844 17.4072ZM8.79898 20.3369H12.7344L13.593 31.2744H10.2301L8.79898 20.3369Z" fill="black"/>
<path d="M10.5512 42.5049C10.2276 42.5049 9.96523 42.8327 9.96523 43.2373C9.96523 43.6419 10.2276 43.9697 10.5512 43.9697H16.8203C17.1439 43.9697 17.4062 43.6419 17.4062 43.2373V34.9365C17.4062 34.5319 17.1439 34.2041 16.8203 34.2041H5.49219C5.16859 34.2041 4.90625 34.5319 4.90625 34.9365V43.2373C4.90625 43.6419 5.16859 43.9697 5.49219 43.9697H7.8168C8.14039 43.9697 8.40273 43.6419 8.40273 43.2373C8.40273 42.8327 8.14039 42.5049 7.8168 42.5049H6.07812V35.6689H16.2344V42.5049H10.5512Z" fill="black"/>
<path d="M25.1797 34.2041C24.8561 34.2041 24.5938 34.5319 24.5938 34.9365V43.2373C24.5938 43.6419 24.8561 43.9697 25.1797 43.9697H36.5078C36.8314 43.9697 37.0938 43.6419 37.0938 43.2373V34.9365C37.0938 34.5319 36.8314 34.2041 36.5078 34.2041H25.1797ZM35.9219 42.5049H25.7656V35.6689H35.9219V42.5049Z" fill="black"/>
<path d="M25.5958 12.7259C25.7962 12.3551 26.1291 12.1338 26.4863 12.1338C26.8992 12.1338 27.2688 12.4221 27.4509 12.8862C27.5806 13.2167 27.8867 13.3758 28.1654 13.2572C28.2401 13.2255 28.3163 13.2094 28.3917 13.2094C28.7473 13.2094 29.0479 13.541 29.0912 13.9809C29.1144 14.26 29.3836 14.6632 29.7442 14.6186C30.0653 14.5693 30.2938 14.2037 30.2542 13.8024C30.1389 12.6291 29.3382 11.7446 28.3917 11.7446C28.3473 11.7446 28.3029 11.7466 28.2587 11.7506C27.8388 11.0726 27.1929 10.6691 26.4863 10.6691C25.7392 10.6691 25.0433 11.1315 24.6247 11.9061C24.4435 12.2413 24.5141 12.6966 24.7823 12.923C25.0504 13.1492 25.4146 13.0612 25.5958 12.7259Z" fill="black"/>
<path d="M19.7424 10.7178C19.7217 10.7178 19.7012 10.7198 19.6806 10.7206C19.257 9.7377 18.4338 9.10645 17.5158 9.10645C16.4499 9.10645 15.5103 9.95635 15.1775 11.2214C15.0765 11.6057 15.2438 12.0195 15.5512 12.1459C15.8586 12.2721 16.1898 12.0631 16.2908 11.6788C16.4649 11.0164 16.9573 10.5713 17.5158 10.5713C17.9395 10.5713 18.3247 10.8278 18.5622 11.2407C18.328 11.4779 18.1377 11.7861 18.0149 12.1489C17.8889 12.5215 18.0283 12.9513 18.3263 13.1088C18.6245 13.2662 18.9682 13.0922 19.0943 12.7196C19.2047 12.3934 19.4591 12.1826 19.7424 12.1826C20.1301 12.1826 20.4456 12.5769 20.4456 13.0615C20.4456 13.4661 20.7079 13.7939 21.0315 13.7939C21.3551 13.7939 21.6174 13.4661 21.6174 13.0615C21.6174 11.7692 20.7763 10.7178 19.7424 10.7178Z" fill="black"/>
<path d="M11.3017 12.1736C10.78 12.7405 10.5816 13.6374 10.7961 14.4588C10.8768 14.7679 11.1062 14.9642 11.3529 14.9642C11.4132 14.9642 11.4745 14.9525 11.5348 14.9279C11.8425 14.8024 12.0104 14.3889 11.91 14.0043C11.842 13.7437 11.905 13.4589 12.0705 13.279C12.2969 13.0329 12.6414 13.0631 12.8383 13.3462C13.0507 13.6517 13.4207 13.6839 13.665 13.4185C13.9092 13.1532 13.9351 12.6906 13.7228 12.3853C13.1021 11.4926 12.0161 11.3977 11.3017 12.1736Z" fill="black"/>
</g>

</svg>
