<svg width="39" height="44" viewBox="0 0 39 44" fill="none" xmlns="http://www.w3.org/2000/svg">
<path d="M25.6454 4.29891C25.2633 3.33524 24.4684 2.67284 23.5497 2.67284C23.1456 2.67284 22.7654 2.80106 22.4338 3.02675C22.3427 3.08876 22.2288 3.0285 22.2078 2.90145C22.0123 1.72059 20.1779 1.34052 20.1779 1.34052C19.3947 1.34052 18.8854 1.91669 18.5313 2.71659C18.4839 2.82372 18.3734 2.8536 18.2962 2.77831C17.8119 2.30595 17.1165 1.79344 16.4545 1.79344C14.9683 1.79344 13.8561 3.22938 13.7192 5.04227C13.7096 5.16923 13.6092 5.24921 13.5123 5.20927C13.2735 5.11083 12.8168 4.98075 12.5515 4.98075C11.5061 4.98075 10.804 5.90751 10.4638 7.06688C10.4384 7.1535 10.3665 7.20517 10.2938 7.18954C10.0073 7.12821 9.50287 7.30507 9.19381 7.3577C7.79607 7.59569 7.11631 8.54472 7.05287 10.3062C6.97685 12.4157 8.93302 14.1293 10.6039 14.1293C12.1422 14.1293 28.089 13.6748 28.7949 13.6748C30.213 13.6748 33.1496 14.003 33.3132 12.2854C33.3261 12.1498 33.3331 12.0118 33.3331 11.8718C33.3331 9.95917 32.0927 8.40858 30.5626 8.40858C30.4929 8.40858 30.424 8.4119 30.3556 8.41825C30.2551 8.42763 30.177 8.31474 30.1914 8.19013C30.2261 7.88895 30.2258 7.57372 30.1815 7.2494C29.9934 5.87304 29.0586 4.81962 27.9437 4.73475C27.5919 4.708 27.2551 4.77509 26.9477 4.91806L25.6454 4.29891Z" fill="#FFBF54"/>
<path d="M9.26586 12.4844C7.44406 12.4844 7.21242 7.67334 10.5462 7.94102C10.7398 7.95654 10.9168 7.81738 10.9985 7.59756C11.3833 6.56279 12.2221 5.84521 13.1952 5.84521C13.3484 5.84521 13.4982 5.86309 13.6434 5.89717C13.9015 5.95771 14.1536 5.7542 14.1991 5.43096C14.4237 3.8335 15.362 2.69229 16.7345 2.69229C17.2828 2.69229 17.7265 2.87637 18.1271 3.20684C18.3305 3.37461 18.6029 3.3333 18.7548 3.09502C19.181 2.42637 19.9253 1.95557 20.6173 1.95557C21.1127 1.95557 21.8401 2.29219 22.2077 2.90146C22.0096 1.63145 21.1175 0.833008 20.1731 0.833008C19.39 0.833008 18.7084 1.3748 18.3543 2.17471C18.3069 2.28184 18.1964 2.31182 18.1191 2.23643C17.6348 1.76406 17.0256 1.48232 16.3637 1.48232C14.8775 1.48232 13.6572 2.90098 13.5202 4.71396C13.5106 4.84082 13.4102 4.9209 13.3134 4.88096C13.0746 4.78252 12.8194 4.7291 12.5541 4.7291C11.5086 4.7291 10.6178 5.55654 10.2777 6.71611C10.2523 6.80244 10.1807 6.854 10.1081 6.83848C9.78539 6.76934 9.44508 6.76475 9.09445 6.84219C7.84304 7.11865 6.87109 8.3918 6.69594 9.94883C6.55836 11.1145 6.90281 12.3419 7.59304 13.1442C8.11992 13.7644 8.82961 14.1444 9.61039 14.1444C11.1487 14.1444 29.8566 15.3349 30.5625 15.3349C31.9805 15.3349 33.1495 14.0028 33.313 12.2854C26.2383 12.3463 10.4652 12.4844 9.26586 12.4844Z" fill="#FFA442"/>
<path d="M30.1489 29.6904H9.22609L7.57812 16.6045L7.63797 16.2139L32.7607 16.2046L32.8906 16.6045L31.4595 27.542L30.1489 29.6904Z" fill="#F7F3F1"/>
<path d="M9.65875 27.1325L8.28125 16.6045L7.70445 16.1162L7.10938 16.6045L9.46047 34.5732H10.6323H30.5395L31.4595 27.542H10.0443C9.85289 27.542 9.68969 27.3687 9.65875 27.1325Z" fill="#EAE2DF"/>
<path d="M25.6987 34.5733H14.3012L13.1243 27.542L12.2656 16.6045L12.5183 16.2139L27.3855 16.2049L27.7344 16.6045L26.8757 27.542L25.6987 34.5733Z" fill="#FC5461"/>
<path d="M26.3238 34.5732L26.8757 27.542H13.1243L13.6763 34.5732H26.3238Z" fill="#DD3652"/>
<path d="M21.7954 29.6904H18.2046L17.7081 27.542L17.4219 16.6045L17.5715 16.2139L22.1741 16.1823L22.5781 16.6045L22.2919 27.542L21.7954 29.6904Z" fill="#F7F3F1"/>
<path d="M22.1079 34.5732L22.2919 27.542H17.7081L17.8921 34.5732H22.1079Z" fill="#EAE2DF"/>
<path d="M32.3022 16.1738L7.95708 16.2046C7.30989 16.2046 6.4145 15.335 6.4145 15.335C6.4145 14.8818 6.14114 14.2815 6.39974 14.0128C6.60278 13.8018 6.86372 13.6748 7.14841 13.6748H32.8515C33.4987 13.6748 34.0234 14.3307 34.0234 15.1396C34.0234 15.9486 32.9493 16.1738 32.3022 16.1738Z" fill="#FC5461"/>
<path d="M6.39977 14.0128C6.14125 14.2815 5.97656 14.6865 5.97656 15.1397C5.97656 15.9487 6.50125 16.6045 7.14844 16.6045H32.8516C33.4988 16.6045 34.0234 15.9487 34.0234 15.1397H7.53906C6.98508 15.1397 6.52203 14.6585 6.39977 14.0128Z" fill="#DD3652"/>
<path d="M0.820312 31.6436L0.742188 40.5303C0.742188 41.8786 1.61664 42.9717 2.69531 42.9717H16.2059C17.0019 42.9717 17.8498 42.5693 18.1526 41.7021C18.237 41.4605 18.2911 41.1981 18.3089 40.9218L18.4385 38.9131C18.5041 37.8959 19.1837 37.1123 20 37.1123C20.8163 37.1123 21.6748 37.4909 21.7404 38.5081L21.8473 40.7266C21.9291 41.9947 22.7763 42.9717 23.7941 42.9717L37.2257 42.9047C38.0266 42.9047 38.9498 42.5645 39.2512 41.7022C39.3559 41.4031 39.4141 41.0729 39.4141 40.7256V31.4482C39.4141 30.0999 38.5396 29.0068 37.4609 29.0068H2.53906C2.26937 29.0068 2.0125 29.0752 1.77883 29.1987C1.77172 29.2024 1.76477 29.2065 1.75773 29.2104C1.07273 29.591 0.820312 30.6425 0.820312 31.6436Z" fill="#F7F3F1"/>
<path d="M1.75781 40.7256L1.75773 29.2104C1.06805 29.5872 0.585938 30.4473 0.585938 31.4483V40.7256C0.585938 42.074 1.46039 43.167 2.53906 43.167H16.3621C17.1581 43.167 17.8498 42.5694 18.1526 41.7022H2.53906C2.10758 41.7022 1.75781 41.265 1.75781 40.7256Z" fill="#EAE2DF"/>
<path d="M22.9513 40.8021L22.8325 38.9124C22.7687 37.896 22.0902 37.112 21.2745 37.1122L20 37.1124C20.8163 37.1124 21.4959 37.896 21.5615 38.9132L21.6911 40.9219C21.7729 42.19 22.6201 43.167 23.6379 43.167H37.4609C38.2618 43.167 38.9498 42.5643 39.2513 41.7022L23.7301 41.7021C23.3223 41.7022 22.9832 41.3102 22.9513 40.8021Z" fill="#EAE2DF"/>
<path d="M15.2734 40.042H5.03906C4.82336 40.042 4.64844 39.8233 4.64844 39.5537V32.6201C4.64844 32.3505 4.82336 32.1318 5.03906 32.1318L5.66406 31.9365H15.4297C15.6454 31.9365 15.8203 32.1552 15.8203 32.4248V38.7725L15.6641 39.5537C15.6641 39.8233 15.4891 40.042 15.2734 40.042Z" fill="#8E73FF"/>
<path d="M6.05469 38.7725C5.83898 38.7725 5.66406 38.5538 5.66406 38.2842V31.9365H4.88281C4.66711 31.9365 4.49219 32.1552 4.49219 32.4248V39.749C4.49219 40.0187 4.66711 40.2373 4.88281 40.2373H15.4297C15.6454 40.2373 15.8203 40.0187 15.8203 39.749V38.7725H6.05469Z" fill="#7D67E5"/>
<path d="M34.9609 40.042H24.7266C24.5109 40.042 24.3359 39.8233 24.3359 39.5537V32.6201C24.3359 32.3505 24.5109 32.1318 24.7266 32.1318L25.3516 31.9365H35.1172C35.3329 31.9365 35.5078 32.1552 35.5078 32.4248V38.7725L35.3516 39.5537C35.3516 39.8233 35.1766 40.042 34.9609 40.042Z" fill="#FC5461"/>
<path d="M25.7422 38.7725C25.5265 38.7725 25.3516 38.5538 25.3516 38.2842V31.9365H24.5703C24.3546 31.9365 24.1797 32.1552 24.1797 32.4248V39.749C24.1797 40.0187 24.3546 40.2373 24.5703 40.2373H35.1172C35.3329 40.2373 35.5078 40.0187 35.5078 39.749V38.7725H25.7422Z" fill="#DD3652"/>
<path d="M39.4141 34.6776C39.7377 34.6776 40 34.3498 40 33.9452V31.4482C40 29.6981 38.8609 28.2744 37.4609 28.2744H31.9574L33.4031 17.2255C34.103 16.9355 34.6094 16.1104 34.6094 15.1396C34.6094 14.3304 34.2573 13.6224 33.7348 13.2411C33.8557 12.8026 33.9191 12.3396 33.9191 11.8718C33.9191 9.65889 32.5413 7.84062 30.8018 7.68672C30.7989 7.50049 30.7848 7.31416 30.7595 7.12852C30.5304 5.44502 29.3777 4.13223 28.0189 4.00713C27.7643 3.9835 27.5118 4.0002 27.2645 4.05518C26.9762 3.78291 26.4468 3.46787 25.924 3.46406C25.3787 2.51514 24.4984 1.94043 23.5498 1.94043C23.2329 1.94043 22.922 2.00361 22.6267 2.12627C22.2209 0.923437 21.2727 0.100586 20.1732 0.100586C19.3562 0.100586 18.5991 0.567383 18.101 1.33799C17.5776 0.955078 16.9794 0.75 16.3638 0.75C14.759 0.75 13.3879 2.16025 13.0191 4.04121C12.8663 4.01152 12.7111 3.99668 12.5542 3.99668C11.3954 3.99668 10.3689 4.80615 9.86516 6.06455C9.62164 6.04238 9.37672 6.05225 9.13305 6.09355C7.44328 6.38125 6.16125 8.13428 6.08461 10.262C6.04859 11.2608 6.28305 12.2205 6.72656 13.0069C5.96047 13.2437 5.39062 14.1099 5.39062 15.1396C5.39062 16.1104 5.89703 16.9356 6.59688 17.2255L8.04258 28.2744H2.53906C1.13906 28.2744 0 29.6981 0 31.4482V40.7256C0 42.4757 1.13906 43.8994 2.53906 43.8994H16.3621C17.6756 43.8994 18.7873 42.6174 18.893 40.9807L19.0226 38.9721C19.0634 38.3398 19.4927 37.8447 20.0001 37.8447C20.5074 37.8447 20.9367 38.3398 20.9776 38.972L21.1072 40.9807C21.2128 42.6174 22.3245 43.8994 23.638 43.8994H37.4609C38.8609 43.8994 40 42.4757 40 40.7256V37.3632C40 36.9586 39.7377 36.6308 39.4141 36.6308C39.0905 36.6308 38.8281 36.9586 38.8281 37.3632V40.7256C38.8281 41.6679 38.2148 42.4346 37.4609 42.4346H23.6379C22.9306 42.4346 22.332 41.7442 22.2752 40.863L22.1455 38.8542C22.056 37.4668 21.1135 36.3799 20 36.3799C18.8865 36.3799 17.944 37.4668 17.8545 38.8543L17.7248 40.863C17.668 41.7441 17.0694 42.4346 16.3621 42.4346H2.53906C1.78523 42.4346 1.17188 41.6679 1.17188 40.7256V31.4482C1.17188 30.506 1.78523 29.7393 2.53906 29.7393H37.4609C38.2148 29.7393 38.8281 30.506 38.8281 31.4482V33.9452C38.8281 34.3498 39.0905 34.6776 39.4141 34.6776ZM27.407 28.2744L28.2656 17.3369H32.201L30.7699 28.2744H27.407ZM22.859 28.2744L23.1452 17.3369H27.0881L26.2295 28.2744H22.859ZM18.2296 25.0696C18.219 24.6653 17.9504 24.3465 17.6248 24.3615C17.3014 24.3748 17.0478 24.7133 17.0584 25.1175L17.1409 28.2744H13.7705L12.9118 17.3369H16.8547L16.9688 21.6955C16.9791 22.0917 17.2393 22.404 17.5541 22.404C17.5605 22.404 17.567 22.4039 17.5736 22.4036C17.897 22.3903 18.1506 22.0519 18.1401 21.6477L18.0273 17.3369H21.9727L21.6864 28.2744H18.3134L18.2296 25.0696ZM7.14844 14.4072H23.2763C23.5998 14.4072 23.8622 14.0794 23.8622 13.6748C23.8622 13.2702 23.5998 12.9424 23.2763 12.9424H8.33531C7.62961 12.3738 7.21719 11.3834 7.25523 10.3278C7.30562 8.93037 8.18086 7.73398 9.29117 7.54502C9.56508 7.49824 9.84133 7.51201 10.1124 7.58535C10.41 7.66611 10.7073 7.44824 10.7966 7.08428C11.0348 6.11367 11.7412 5.46152 12.5542 5.46152C12.8052 5.46152 13.0485 5.52373 13.2774 5.64639C13.4564 5.74229 13.6616 5.7209 13.8253 5.58906C13.989 5.45742 14.0897 5.23271 14.094 4.98945C14.1212 3.45947 15.1394 2.21484 16.3637 2.21484C16.923 2.21484 17.4607 2.47168 17.8775 2.93809C18.0176 3.09482 18.2095 3.15801 18.393 3.10801C18.5768 3.05791 18.7301 2.90078 18.8053 2.68545C19.043 2.00508 19.5798 1.56543 20.1731 1.56543C20.9442 1.56543 21.5825 2.2876 21.6577 3.24512C21.6779 3.50205 21.8048 3.72686 21.9919 3.83652C22.1789 3.94629 22.3983 3.9248 22.5694 3.78008C22.8591 3.53486 23.198 3.40527 23.5498 3.40527C23.9579 3.40527 24.3448 3.5832 24.6519 3.89385C24.2695 4.18906 23.9548 4.62217 23.7616 5.15791C23.6285 5.52666 23.7598 5.96045 24.0548 6.12666C24.35 6.29307 24.6969 6.12881 24.8298 5.76006C25.0275 5.21231 25.4823 4.87949 25.9617 4.93184C26.2631 4.96475 26.5362 5.14248 26.7308 5.43223C26.9253 5.72197 27.0179 6.08906 26.9915 6.46592C26.9641 6.77871 27.1966 7.25244 27.5759 7.26211C27.8763 7.26211 28.1322 6.9748 28.1589 6.59346C28.1854 6.21445 28.1526 5.84033 28.0649 5.4876C28.835 5.63232 29.4717 6.40137 29.6042 7.37432C29.6452 7.67607 29.6379 7.98115 29.5821 8.28125C29.5383 8.51738 29.5908 8.76523 29.7222 8.94336C29.8537 9.12139 30.047 9.20723 30.2389 9.17129C30.3467 9.15127 30.4556 9.14111 30.5627 9.14111C31.7672 9.14111 32.7472 10.3661 32.7472 11.8719C32.7472 12.2414 32.6866 12.606 32.572 12.9425H26.0106C25.687 12.9425 25.4247 13.2703 25.4247 13.6749C25.4247 14.0795 25.687 14.4073 26.0106 14.4073H32.8516C33.1747 14.4073 33.4375 14.7358 33.4375 15.1397C33.4375 15.5437 33.1747 15.8722 32.8516 15.8722H7.14844C6.82531 15.8722 6.5625 15.5437 6.5625 15.1397C6.5625 14.7358 6.82531 14.4072 7.14844 14.4072ZM7.79898 17.3369H11.7344L12.593 28.2744H9.23008L7.79898 17.3369Z" fill="black"/>
<path d="M9.55117 39.5049C9.22758 39.5049 8.96523 39.8327 8.96523 40.2373C8.96523 40.6419 9.22758 40.9697 9.55117 40.9697H15.8203C16.1439 40.9697 16.4062 40.6419 16.4062 40.2373V31.9365C16.4062 31.5319 16.1439 31.2041 15.8203 31.2041H4.49219C4.16859 31.2041 3.90625 31.5319 3.90625 31.9365V40.2373C3.90625 40.6419 4.16859 40.9697 4.49219 40.9697H6.8168C7.14039 40.9697 7.40273 40.6419 7.40273 40.2373C7.40273 39.8327 7.14039 39.5049 6.8168 39.5049H5.07812V32.6689H15.2344V39.5049H9.55117Z" fill="black"/>
<path d="M24.1797 31.2041C23.8561 31.2041 23.5938 31.5319 23.5938 31.9365V40.2373C23.5938 40.6419 23.8561 40.9697 24.1797 40.9697H35.5078C35.8314 40.9697 36.0938 40.6419 36.0938 40.2373V31.9365C36.0938 31.5319 35.8314 31.2041 35.5078 31.2041H24.1797ZM34.9219 39.5049H24.7656V32.6689H34.9219V39.5049Z" fill="black"/>
<path d="M24.5958 9.7259C24.7962 9.3551 25.1291 9.13381 25.4863 9.13381C25.8992 9.13381 26.2688 9.42209 26.4509 9.88616C26.5806 10.2167 26.8867 10.3758 27.1654 10.2572C27.2401 10.2255 27.3163 10.2094 27.3917 10.2094C27.7473 10.2094 28.0479 10.541 28.0912 10.9809C28.1144 11.26 28.3836 11.6632 28.7442 11.6186C29.0653 11.5693 29.2938 11.2037 29.2542 10.8024C29.1389 9.62913 28.3382 8.74456 27.3917 8.74456C27.3473 8.74456 27.3029 8.74661 27.2587 8.75061C26.8388 8.07258 26.1929 7.66907 25.4863 7.66907C24.7392 7.66907 24.0433 8.13147 23.6247 8.90608C23.4435 9.24133 23.5141 9.69661 23.7823 9.92297C24.0504 10.1492 24.4146 10.0612 24.5958 9.7259Z" fill="black"/>
<path d="M18.7424 7.71777C18.7217 7.71777 18.7012 7.71982 18.6806 7.72061C18.257 6.7377 17.4338 6.10645 16.5158 6.10645C15.4499 6.10645 14.5103 6.95635 14.1775 8.22139C14.0765 8.60566 14.2438 9.01953 14.5512 9.1459C14.8586 9.27207 15.1898 9.06309 15.2908 8.67881C15.4649 8.01641 15.9573 7.57129 16.5158 7.57129C16.9395 7.57129 17.3247 7.82783 17.5622 8.24072C17.328 8.47793 17.1377 8.78613 17.0149 9.14893C16.8889 9.52148 17.0283 9.95127 17.3263 10.1088C17.6245 10.2662 17.9682 10.0922 18.0943 9.71963C18.2047 9.39336 18.4591 9.18262 18.7424 9.18262C19.1301 9.18262 19.4456 9.57686 19.4456 10.0615C19.4456 10.4661 19.7079 10.7939 20.0315 10.7939C20.3551 10.7939 20.6174 10.4661 20.6174 10.0615C20.6174 8.76924 19.7763 7.71777 18.7424 7.71777Z" fill="black"/>
<path d="M10.3017 9.17356C9.78004 9.74046 9.5816 10.6374 9.79606 11.4588C9.87676 11.7679 10.1062 11.9642 10.3529 11.9642C10.4132 11.9642 10.4745 11.9525 10.5348 11.9279C10.8425 11.8024 11.0104 11.3889 10.91 11.0043C10.842 10.7437 10.905 10.4589 11.0705 10.279C11.2969 10.0329 11.6414 10.0631 11.8383 10.3462C12.0507 10.6517 12.4207 10.6839 12.665 10.4185C12.9092 10.1532 12.9351 9.69055 12.7228 9.38528C12.1021 8.49261 11.0161 8.39768 10.3017 9.17356Z" fill="black"/>
</svg>
