<?xml version="1.0" encoding="iso-8859-1"?>
<!-- Generator: Adobe Illustrator 16.0.0, SVG Export Plug-In . SVG Version: 6.00 Build 0)  -->
<!DOCTYPE svg PUBLIC "-//W3C//DTD SVG 1.1//EN" "http://www.w3.org/Graphics/SVG/1.1/DTD/svg11.dtd">
<svg version="1.1" id="Capa_1" xmlns="http://www.w3.org/2000/svg" xmlns:xlink="http://www.w3.org/1999/xlink" x="0px" y="0px"
	 width="476.102px" height="476.102px" viewBox="0 0 476.102 476.102" style="enable-background:new 0 0 476.102 476.102;"
	 xml:space="preserve">
<g>
	<g>
		<path d="M465.604,415.177L344.961,294.531c21.072-30.983,32.427-67.521,32.427-105.815c0-50.409-19.63-97.8-55.273-133.442
			C286.471,19.628,239.08,0,188.673,0C138.266,0,90.875,19.629,55.229,55.274c-73.58,73.579-73.58,193.302,0.001,266.882
			c35.645,35.646,83.035,55.273,133.442,55.273c38.294,0,74.833-11.355,105.816-32.427l120.645,120.645
			c6.968,6.969,16.102,10.454,25.236,10.454c9.134,0,18.268-3.484,25.235-10.454C479.542,451.71,479.542,429.113,465.604,415.177z
			 M276.354,276.4c-23.42,23.42-54.561,36.319-87.683,36.319s-64.264-12.899-87.686-36.319c-48.349-48.351-48.349-127.02,0-175.369
			c23.422-23.421,54.563-36.32,87.686-36.32s64.263,12.899,87.684,36.32s36.32,54.562,36.32,87.685
			C312.675,221.839,299.776,252.978,276.354,276.4z"/>
		<path d="M232.997,119.302c-7.881,7.496-8.192,19.962-0.696,27.844c12.549,13.194,19.46,30.315,19.46,48.208
			c0,10.877,8.817,19.695,19.694,19.695c10.878,0,19.695-8.818,19.695-19.695c0-28.043-10.764-54.805-30.309-75.354
			C253.345,112.118,240.88,111.806,232.997,119.302z"/>
		<path d="M205.797,87.984c-9.217-2.307-18.752-3.476-28.343-3.476c-10.877,0-19.694,8.818-19.694,19.695
			s8.817,19.695,19.694,19.695c6.369,0,12.688,0.773,18.779,2.297c1.605,0.402,3.213,0.594,4.796,0.594
			c8.822,0,16.853-5.972,19.091-14.918C222.762,101.319,216.349,90.624,205.797,87.984z"/>
	</g>
</g>
<g>
</g>
<g>
</g>
<g>
</g>
<g>
</g>
<g>
</g>
<g>
</g>
<g>
</g>
<g>
</g>
<g>
</g>
<g>
</g>
<g>
</g>
<g>
</g>
<g>
</g>
<g>
</g>
<g>
</g>
</svg>
