<svg width="25" height="25" viewBox="0 0 25 25" fill="none" xmlns="http://www.w3.org/2000/svg">
<path d="M17.8674 15.3233H16.7381L16.3379 14.9514C17.7387 13.3813 18.582 11.3429 18.582 9.1255C18.582 4.18102 14.4225 0.173096 9.29102 0.173096C4.15952 0.173096 0 4.18102 0 9.1255C0 14.07 4.15952 18.0779 9.29102 18.0779C11.5923 18.0779 13.7078 17.2653 15.3373 15.9155L15.7233 16.3012V17.3892L22.8702 24.2619L25 22.2098L17.8674 15.3233ZM9.29102 15.3233C5.73185 15.3233 2.85878 12.555 2.85878 9.1255C2.85878 5.69604 5.73185 2.92768 9.29102 2.92768C12.8502 2.92768 15.7233 5.69604 15.7233 9.1255C15.7233 12.555 12.8502 15.3233 9.29102 15.3233Z" fill="#E8E8E8"/>
</svg>
